<?xml version="1.0" encoding="UTF-8"?>
<svg width="12px" height="24px" viewBox="0 0 12 24" version="1.1" xmlns="http://www.w3.org/2000/svg" xmlns:xlink="http://www.w3.org/1999/xlink">
    <!-- Generator: sketchtool 61.1 (101010) - https://sketch.com -->
    <title>2CFE3AFA-E45E-41C5-BD0E-CD35B5F54E80</title>
    <desc>Created with sketchtool.</desc>
    <g id="Page-1" stroke="none" stroke-width="1" fill="none" fill-rule="evenodd">
        <g id="Free-Patch-lead-magnet" transform="translate(-924.000000, -111.000000)" fill="#000000" stroke="#000000" stroke-width="2">
            <g id="Down-arrow" transform="translate(925.000000, 112.000000)">
                <path d="M1.011685,13.8573379 C1.27548976,14.2268104 1.88300763,14.9156004 2.83390875,15.9246574 C3.59662529,16.7635672 4.17016768,17.4767873 4.55379373,18.0647493 C4.76770731,9.93669926 5.02813101,4.22316939 5.33465252,0.924418642 C5.34298146,0.766874871 5.40994284,0.633847501 5.53594899,0.526372435 C5.66137788,0.418983695 5.80107318,0.361318358 5.95445763,0.353635402 C6.10734729,0.345952445 6.23021978,0.402063925 6.32208552,0.520761287 C6.41411619,0.640062926 6.45576089,0.778701444 6.44734949,0.936072565 C6.13860143,4.27979882 5.89491808,9.67780953 5.7170416,17.1295867 C6.59487894,15.3990224 7.71235886,13.881509 9.07014109,12.5764423 C9.20752738,12.4574859 9.35258289,12.3937778 9.5060498,12.3861812 C9.65877453,12.3784982 9.78181195,12.4344371 9.87376016,12.5532207 C9.9656259,12.6723497 10.0073531,12.8109019 9.99894166,12.9686183 C9.99061272,13.1264211 9.92901154,13.253492 9.81496278,13.3487952 C8.3185573,14.7956945 7.14871225,16.4732551 6.30526271,18.3818223 L6.21982922,18.7570786 L6.01061613,19.6108364 C5.92584236,19.975043 5.85591225,20.2593988 5.80156797,20.4646804 C5.77229298,20.6009882 5.74483222,20.703629 5.71968047,20.772344 C5.69395146,20.8409727 5.66945943,20.887502 5.64678162,20.9108099 C5.6187436,21.0245867 5.54774145,21.129213 5.43361022,21.2251205 C5.22942748,21.3701471 5.02046179,21.3917284 4.80786764,21.2900372 C4.74469964,21.2479104 4.69282931,21.1948203 4.65275144,21.1292993 C4.63188785,21.1076317 4.60681857,21.0693032 4.57696632,21.0150909 C4.54711408,20.9606196 4.5131386,20.8780926 4.47553467,20.7671645 L4.21593562,20.1053943 C3.96730437,19.4432789 3.78233592,19.0258094 3.66053548,18.8515186 C3.29777301,18.2853106 2.73445625,17.5826222 1.97157478,16.7437124 C0.959979601,15.647553 0.342236104,14.948145 0.118426752,14.6441071 C0.0158405939,14.5143601 -0.0199491108,14.3701968 0.0104803846,14.2110992 C0.0404150916,14.0526058 0.118674146,13.9188878 0.244597831,13.8113264 C0.370026727,13.704024 0.509062308,13.6580989 0.661374715,13.6726016 C0.813027403,13.6875359 0.930044894,13.7490859 1.011685,13.8573379" id="Fill-1"></path>
            </g>
        </g>
    </g>
</svg>