<?xml version="1.0" encoding="UTF-8"?>
<svg width="241px" height="39px" viewBox="0 0 241 39" version="1.1" xmlns="http://www.w3.org/2000/svg" xmlns:xlink="http://www.w3.org/1999/xlink">
    <!-- Generator: sketchtool 61.1 (101010) - https://sketch.com -->
    <title>C8E8F3DB-310D-4899-97A2-DEB742B6A670</title>
    <desc>Created with sketchtool.</desc>
    <g id="Page-1" stroke="none" stroke-width="1" fill="none" fill-rule="evenodd">
        <g id="Free-Patch-lead-magnet" transform="translate(-180.000000, -123.000000)" fill="#F17D21">
            <g id="get-your-free" transform="translate(180.000000, 123.125977)">
                <path d="M6.97265625,25.9423828 C7.26888021,25.9651693 7.58789062,25.9309896 7.9296875,25.8398438 C8.27148437,25.7486979 8.60188802,25.703125 8.92089844,25.703125 L8.92089844,25.703125 L9.84375,25.703125 C10.2083333,25.703125 10.6184896,25.6689453 11.0742188,25.6005859 C11.1425781,25.555013 11.1938477,25.4980469 11.2280273,25.4296875 C11.262207,25.3613281 11.336263,25.3385417 11.4501953,25.3613281 C11.7464193,25.3385417 12.0198568,25.304362 12.2705078,25.2587891 L12.2705078,25.2587891 L13.0224609,25.1220703 C13.273112,25.0764974 13.5351562,25.0423177 13.8085937,25.0195312 C14.0820312,24.9967448 14.4124349,24.9853516 14.7998047,24.9853516 C15.6884766,24.6435547 16.5942383,24.3416341 17.5170898,24.0795898 C18.4399414,23.8175456 19.3570964,23.5668945 20.2685547,23.3276367 C21.180013,23.0883789 22.0686849,22.8377279 22.9345703,22.5756836 C23.8004557,22.3136393 24.6150716,21.9889323 25.378418,21.6015625 C26.1417643,21.2141927 26.8310547,20.7527669 27.4462891,20.2172852 C28.0615234,19.6818034 28.585612,19.0266927 29.0185547,18.2519531 C29.0641276,17.9329427 29.0413411,17.6595052 28.9501953,17.4316406 C28.8590495,17.203776 28.836263,16.9075521 28.8818359,16.5429688 C28.4944661,16.3606771 28.1640625,16.1328125 27.890625,15.859375 C27.6171875,15.5859375 27.34375,15.3068034 27.0703125,15.0219727 C26.796875,14.7371419 26.5120443,14.4637044 26.2158203,14.2016602 C25.9195964,13.9396159 25.5664062,13.7174479 25.15625,13.5351562 C24.7233073,13.2845052 24.2561849,13.0281576 23.7548828,12.7661133 C23.2535807,12.504069 22.7636719,12.2477214 22.2851562,11.9970703 C21.8066406,11.7464193 21.3509115,11.4957682 20.9179687,11.2451172 C20.485026,10.9944661 20.1204427,10.7552083 19.8242188,10.5273438 L19.8242188,10.5273438 L16.9873047,12.4072266 C16.9417318,12.6350911 16.8733724,12.828776 16.7822266,12.9882812 C16.6910807,13.1477865 16.6341146,13.3528646 16.6113281,13.6035156 C16.702474,13.6490885 16.7651367,13.6490885 16.7993164,13.6035156 C16.8334961,13.5579427 16.8562826,13.5123698 16.8676758,13.4667969 C16.879069,13.421224 16.8961589,13.375651 16.9189453,13.3300781 C16.9417318,13.2845052 17.0100911,13.2845052 17.1240234,13.3300781 C17.2835286,13.4440104 17.3632812,13.5921224 17.3632812,13.7744141 C17.3632812,13.9567057 17.2835286,14.1162109 17.1240234,14.2529297 C17.1695964,14.7998047 17.3120117,15.2441406 17.5512695,15.5859375 C17.7905273,15.9277344 18.0924479,16.2011719 18.4570312,16.40625 C18.3658854,16.5201823 18.2462565,16.628418 18.0981445,16.730957 C17.9500326,16.8334961 17.9443359,16.953125 18.0810547,17.0898438 C18.4000651,17.1809896 18.7646484,17.3063151 19.1748047,17.4658203 C17.7848307,17.8304036 16.4176432,18.1892904 15.0732422,18.5424805 C13.7288411,18.8956706 12.281901,19.1520182 10.7324219,19.3115234 C10.6184896,19.3570964 10.5501302,19.436849 10.5273437,19.5507812 C10.5045573,19.6647135 10.4475911,19.7558594 10.3564453,19.8242188 C9.60449219,19.6647135 8.85253906,19.613444 8.10058594,19.6704102 C7.34863281,19.7273763 6.53971354,19.7330729 5.67382812,19.6875 C5.62825521,19.5735677 5.56559245,19.4710286 5.48583984,19.3798828 L5.41178385,19.2849392 C5.36621094,19.2191117 5.32823351,19.1482205 5.29785156,19.0722656 C5.73079427,18.3203125 6.25488281,17.5512695 6.87011719,16.7651367 C7.48535156,15.9790039 8.14615885,15.2156576 8.85253906,14.4750977 C9.55891927,13.7345378 10.2937826,13.0338542 11.0571289,12.3730469 C11.8204753,11.7122396 12.578125,11.1083984 13.3300781,10.5615234 C14.0820312,10.0146484 14.839681,9.5304362 15.6030273,9.10888672 C16.3663737,8.68733724 17.1183268,8.29427083 17.8588867,7.9296875 C18.5994466,7.56510417 19.3058268,7.21761068 19.9780273,6.88720703 C20.6502279,6.55680339 21.2597656,6.2093099 21.8066406,5.84472656 C21.7610677,5.6624349 21.7667643,5.53141276 21.8237305,5.45166016 C21.8806966,5.37190755 21.9091797,5.26367188 21.9091797,5.12695312 C21.9091797,4.96744792 21.8294271,4.88769531 21.6699219,4.88769531 C21.5104167,4.88769531 21.4306641,4.80794271 21.4306641,4.6484375 C21.6357422,4.6484375 21.7382812,4.59147135 21.7382812,4.47753906 C21.7382812,4.36360677 21.7154948,4.23828125 21.6699219,4.1015625 C21.624349,3.96484375 21.5958659,3.83951823 21.5844727,3.72558594 C21.5730794,3.61165365 21.6471354,3.5546875 21.8066406,3.5546875 C21.6471354,3.14453125 21.4135742,2.81982422 21.105957,2.58056641 C20.7983398,2.34130859 20.4679362,2.13623047 20.1147461,1.96533203 C19.761556,1.79443359 19.4197591,1.62353516 19.0893555,1.45263672 C18.7589518,1.28173828 18.4912109,0.979817708 18.2861328,0.546875 C18.1266276,0.501302083 17.972819,0.506998698 17.824707,0.563964844 C17.6765951,0.62093099 17.4772135,0.569661458 17.2265625,0.41015625 C16.5201823,1.02539062 15.7283529,1.59505208 14.8510742,2.11914062 C13.9737956,2.64322917 13.1022135,3.15592448 12.2363281,3.65722656 C11.3704427,4.15852865 10.538737,4.68261719 9.74121094,5.22949219 C8.9436849,5.77636719 8.26009115,6.38020833 7.69042969,7.04101562 C7.43977865,7.08658854 7.23470052,7.17203776 7.07519531,7.29736328 C6.9156901,7.4226888 6.77327474,7.56510417 6.64794922,7.72460938 C6.5226237,7.88411458 6.39729818,8.04931641 6.27197266,8.22021484 C6.14664714,8.39111328 5.98144531,8.5563151 5.77636719,8.71582031 C4.52311198,9.69563802 3.44645182,10.8292643 2.54638672,12.1166992 C1.64632161,13.4041341 0.843098958,14.7998047 0.13671875,16.3037109 C0.182291667,16.6227214 0.170898437,16.8847656 0.102539062,17.0898438 C0.0341796875,17.2949219 0,17.5227865 0,17.7734375 C0.0455729167,17.8190104 0.102539062,17.8588867 0.170898437,17.8930664 C0.239257812,17.9272461 0.262044271,18.0013021 0.239257812,18.1152344 C0.353190104,20.5078125 0.991210937,22.3876953 2.15332031,23.7548828 C3.31542969,25.1220703 4.921875,25.851237 6.97265625,25.9423828 Z M33.1201172,26.3183594 C33.8720703,26.3411458 34.6126302,26.3069661 35.3417969,26.2158203 C36.0709635,26.1246745 36.6975911,26.0221354 37.2216797,25.9082031 C37.4039714,25.9082031 37.5634766,25.9366862 37.7001953,25.9936523 C37.8369141,26.0506185 38.0078125,26.0563151 38.2128906,26.0107422 C39.0559896,25.851237 39.8250326,25.7145182 40.5200195,25.6005859 C41.2150065,25.4866536 41.8473307,25.3271484 42.4169922,25.1220703 C42.9866536,24.9169922 43.4936523,24.6150716 43.9379883,24.2163086 C44.3823242,23.8175456 44.7753906,23.2421875 45.1171875,22.4902344 C44.9804688,22.5130208 44.8836263,22.4845378 44.8266602,22.4047852 C44.769694,22.3250326 44.7298177,22.2281901 44.7070312,22.1142578 C44.6842448,22.0003255 44.6557617,21.8806966 44.621582,21.7553711 C44.5874023,21.6300456 44.5247396,21.5218099 44.4335938,21.4306641 C44.2285156,21.4534505 44.0576172,21.4078776 43.9208984,21.2939453 C43.7841797,21.180013 43.6531576,21.0489909 43.527832,20.9008789 C43.4025065,20.7527669 43.2714844,20.5932617 43.1347656,20.4223633 C42.9980469,20.2514648 42.8385417,20.1318359 42.65625,20.0634766 C42.1321615,20.2457682 41.5568034,20.3767904 40.9301758,20.456543 C40.3035482,20.5362956 39.7623698,20.7014974 39.3066406,20.9521484 C38.577474,20.929362 37.9736328,20.9464518 37.4951172,21.003418 C37.0166016,21.0603841 36.5494792,21.1173503 36.09375,21.1743164 C35.6380208,21.2312826 35.1538086,21.2711589 34.6411133,21.2939453 C34.128418,21.3167318 33.4847005,21.2711589 32.7099609,21.1572266 C32.9378255,20.5419922 33.1998698,19.9609375 33.4960938,19.4140625 C33.7923177,18.8671875 34.1227214,18.3544922 34.4873047,17.8759766 C34.7607422,17.9671224 35.074056,18.0069987 35.4272461,17.9956055 C35.7804362,17.9842122 36.0823568,18.0354818 36.3330078,18.1494141 C36.5152995,18.0354818 36.7716471,18.0013021 37.1020508,18.046875 L37.2610813,18.0630154 C37.5158465,18.0788393 37.719184,18.0392795 37.8710938,17.9443359 C37.9622396,18.0126953 38.0362956,18.046875 38.0932617,18.046875 L38.0932617,18.046875 L38.3496094,18.046875 C38.8964844,18.0696615 39.3920898,18.0183919 39.8364258,17.8930664 C40.2807617,17.7677409 40.7023112,17.6025391 41.1010742,17.3974609 C41.4998372,17.1923828 41.8815104,16.9588216 42.2460938,16.6967773 C42.6106771,16.4347331 42.9752604,16.1783854 43.3398438,15.9277344 C43.4309896,15.6998698 43.4594727,15.4777018 43.425293,15.2612305 C43.3911133,15.0447591 43.3284505,14.8453776 43.2373047,14.6630859 C43.0094401,14.6858724 42.8100586,14.6459961 42.6391602,14.543457 C42.4682617,14.440918 42.3030599,14.3098958 42.1435547,14.1503906 C41.9840495,13.9908854 41.8245443,13.8256836 41.6650391,13.6547852 C41.5055339,13.4838867 41.3460286,13.3414714 41.1865234,13.2275391 C41.163737,13.1363932 41.1751302,13.0737305 41.2207031,13.0395508 C41.266276,13.0053711 41.2776693,12.9313151 41.2548828,12.8173828 C40.320638,12.8401693 39.3693034,12.8971354 38.4008789,12.9882812 C37.4324544,13.0794271 36.5494792,13.0908203 35.7519531,13.0224609 C35.6835938,12.8857422 35.6551107,12.7091471 35.6665039,12.4926758 C35.6778971,12.2762044 35.6380208,12.0654297 35.546875,11.8603516 C35.7519531,11.7919922 35.9570312,11.7293294 36.1621094,11.6723633 C36.3671875,11.6153971 36.5380859,11.5185547 36.6748047,11.3818359 C37.1305339,11.4274089 37.4780273,11.3932292 37.7172852,11.2792969 C37.956543,11.1653646 38.2242839,11.1653646 38.5205078,11.2792969 C39.2724609,10.8235677 40.0301107,10.5273438 40.793457,10.390625 C41.5568034,10.2539062 42.3030599,10.1228841 43.0322266,9.99755859 C43.7613932,9.87223307 44.4392904,9.66715495 45.065918,9.38232422 C45.6925456,9.09749349 46.2451172,8.56770833 46.7236328,7.79296875 C46.6780599,7.63346354 46.6552734,7.51383464 46.6552734,7.43408203 C46.6552734,7.35432943 46.6609701,7.28027344 46.6723633,7.21191406 C46.6837565,7.14355469 46.6951497,7.0694987 46.706543,6.98974609 C46.7179362,6.90999349 46.7122396,6.79036458 46.6894531,6.63085938 C46.2565104,6.44856771 45.863444,6.22639974 45.5102539,5.96435547 C45.1570638,5.7023112 44.8665365,5.37760417 44.6386719,4.99023438 C44.6614583,5.1953125 44.6101888,5.25797526 44.4848633,5.17822266 C44.3595378,5.09847005 44.2513021,5.16113281 44.1601562,5.36621094 C43.9778646,5.36621094 43.7841797,5.26367188 43.5791016,5.05859375 C42.6220703,5.24088542 41.7675781,5.37760417 41.015625,5.46875 C40.2636719,5.55989583 39.5402018,5.65673828 38.8452148,5.75927734 C38.1502279,5.86181641 37.4438477,5.99283854 36.7260742,6.15234375 C36.0083008,6.31184896 35.1936849,6.53971354 34.2822266,6.8359375 C33.7809245,6.94986979 33.3024089,7.05240885 32.8466797,7.14355469 C32.3909505,7.23470052 31.969401,7.34863281 31.5820312,7.48535156 C31.1946615,7.62207031 30.8357747,7.79866536 30.5053711,8.01513672 C30.1749674,8.23160807 29.8958333,8.51074219 29.6679688,8.85253906 C29.781901,9.23990885 29.8616536,9.62158203 29.9072266,9.99755859 C29.9527995,10.3735352 30.0097656,10.7381185 30.078125,11.0913086 C30.1464844,11.4444987 30.2547201,11.7976888 30.402832,12.1508789 C30.550944,12.504069 30.7845052,12.828776 31.1035156,13.125 C30.9440104,13.5579427 30.7788086,13.9510091 30.6079102,14.3041992 C30.4370117,14.6573893 30.2661133,15.0048828 30.0952148,15.3466797 C29.9243164,15.6884766 29.7591146,16.0416667 29.5996094,16.40625 C29.4401042,16.7708333 29.2919922,17.1582031 29.1552734,17.5683594 C28.9957682,17.5455729 28.9046224,17.5854492 28.8818359,17.6879883 C28.8590495,17.7905273 28.7906901,17.8531901 28.6767578,17.8759766 C28.7451172,18.194987 28.6710612,18.4912109 28.4545898,18.7646484 C28.2381185,19.0380859 28.0957031,19.3457031 28.0273438,19.6875 C27.9589844,20.0065104 27.9418945,20.3597005 27.9760742,20.7470703 C28.0102539,21.1344401 28.0615234,21.5275065 28.1298828,21.9262695 C28.1982422,22.3250326 28.2666016,22.7067057 28.3349609,23.0712891 C28.4033203,23.4358724 28.4488932,23.766276 28.4716797,24.0625 C28.7223307,24.1764323 28.8761393,24.3416341 28.9331055,24.5581055 C28.9900716,24.7745768 29.1097005,24.9625651 29.2919922,25.1220703 C29.7249349,25.555013 30.2832031,25.8569336 30.9667969,26.027832 C31.6503906,26.1987305 32.3681641,26.2955729 33.1201172,26.3183594 Z M53.3544922,26.6601562 C54.1748047,26.6601562 54.7558594,26.4436849 55.0976562,26.0107422 C55.4166667,25.6233724 55.5192057,25.0992839 55.4052734,24.4384766 L55.4052734,24.4384766 L55.0976562,24.0966797 C54.9153646,24.0055339 54.7786458,23.9257812 54.6875,23.8574219 C54.6191406,23.8346354 54.5166016,23.7776693 54.3798828,23.6865234 C54.3570964,23.5725911 54.3172201,23.4814453 54.2602539,23.4130859 C54.2032878,23.3447266 54.140625,23.264974 54.0722656,23.1738281 C54.0494792,23.0143229 54.0722656,22.7978516 54.140625,22.5244141 C54.1634115,22.4104818 54.1861979,22.2908529 54.2089844,22.1655273 C54.2317708,22.0402018 54.2317708,21.9205729 54.2089844,21.8066406 C54.3229167,21.7382812 54.3798828,21.5901693 54.3798828,21.3623047 C54.3798828,21.3167318 54.391276,21.2426758 54.4140625,21.1401367 C54.436849,21.0375977 54.4710286,20.929362 54.5166016,20.8154297 C54.6533203,20.5647786 54.7330729,20.3141276 54.7558594,20.0634766 C54.8470052,19.9951172 54.9039714,19.9210612 54.9267578,19.8413086 C54.9495443,19.761556 55.0292969,19.6533203 55.1660156,19.5166016 L55.1660156,19.5166016 L55.3027344,19.1064453 C55.3710938,18.8330078 55.4736328,18.5083008 55.6103516,18.1323242 C55.7470703,17.7563477 55.9521484,17.3974609 56.2255859,17.0556641 C56.3167318,16.6682943 56.4363607,16.3208008 56.5844727,16.0131836 C56.7325846,15.7055664 56.9205729,15.3694661 57.1484375,15.0048828 C57.2851562,14.5491536 57.4275716,14.1219076 57.5756836,13.7231445 C57.7237956,13.3243815 57.8889974,12.9313151 58.0712891,12.5439453 C58.2535807,12.179362 58.4244792,11.8033854 58.5839844,11.4160156 C58.7434896,11.0286458 58.9029948,10.5843099 59.0625,10.0830078 C59.4042969,10.0602214 59.7859701,10.0260417 60.2075195,9.98046875 C60.629069,9.93489583 61.0677083,9.87792969 61.5234375,9.80957031 C62.1614583,9.71842448 62.8108724,9.63297526 63.4716797,9.55322266 C64.132487,9.47347005 64.7477214,9.43359375 65.3173828,9.43359375 C65.4541016,9.43359375 65.5851237,9.43929036 65.7104492,9.45068359 C65.8357747,9.46207682 66.0009766,9.46777344 66.2060547,9.46777344 C66.319987,9.44498698 66.422526,9.41650391 66.5136719,9.38232422 C66.6048177,9.34814453 66.6959635,9.30826823 66.7871094,9.26269531 C66.9010417,9.2171224 67.014974,9.17724609 67.1289062,9.14306641 C67.2428385,9.10888672 67.3681641,9.09179688 67.5048828,9.09179688 L67.5048828,9.09179688 L67.8466797,9.12597656 L68.1542969,8.71582031 C68.2454427,8.6702474 68.3821615,8.51074219 68.5644531,8.23730469 C68.6328125,7.5764974 68.5302734,7.07519531 68.2568359,6.73339844 C67.9833984,6.39160156 67.7099609,6.0953776 67.4365234,5.84472656 C67.2998047,5.73079427 67.1687826,5.61686198 67.043457,5.50292969 C66.9181315,5.3889974 66.8212891,5.26367188 66.7529297,5.12695312 L66.7529297,5.12695312 L66.4111328,4.88769531 C66.1604818,4.8421224 65.8870443,4.80794271 65.5908203,4.78515625 C65.2945964,4.76236979 64.9869792,4.75097656 64.6679688,4.75097656 C63.9388021,4.75097656 63.1811523,4.79654948 62.3950195,4.88769531 C61.6088867,4.97884115 60.8284505,5.08138021 60.0537109,5.1953125 C59.5296224,5.28645833 59.0112305,5.36051432 58.4985352,5.41748047 C57.9858398,5.47444661 57.4788411,5.52571615 56.9775391,5.57128906 C56.8636068,5.45735677 56.7211914,5.33772786 56.550293,5.21240234 C56.3793945,5.08707682 56.0888672,5.03580729 55.6787109,5.05859375 L55.6787109,5.05859375 L55.3369141,5.22949219 C55.2457682,5.41178385 55.1546224,5.60546875 55.0634766,5.81054688 C54.5621745,5.85611979 54.0779622,5.90169271 53.6108398,5.94726562 C53.1437174,5.99283854 52.6822917,6.03841146 52.2265625,6.08398438 C51.4290365,6.15234375 50.6542969,6.21500651 49.9023438,6.27197266 C49.1503906,6.3289388 48.4098307,6.35742188 47.6806641,6.35742188 L47.6806641,6.35742188 L46.7236328,6.35742188 L46.2792969,6.32324219 L46.1767578,6.8359375 C46.1311849,6.90429688 46.0742188,6.98404948 46.0058594,7.07519531 C45.9375,7.16634115 45.8919271,7.3030599 45.8691406,7.48535156 C45.8691406,7.8499349 45.9090169,8.1632487 45.9887695,8.42529297 C46.0685221,8.68733724 46.1539714,8.93229167 46.2451172,9.16015625 C46.2906901,9.31966146 46.336263,9.46207682 46.3818359,9.58740234 C46.4274089,9.71272786 46.4615885,9.84375 46.484375,9.98046875 L46.484375,9.98046875 L46.7919922,10.390625 C46.883138,10.4134115 47.0654297,10.6070964 47.3388672,10.9716797 C47.5439453,11.085612 47.7376302,11.159668 47.9199219,11.1938477 C48.1022135,11.2280273 48.273112,11.2451172 48.4326172,11.2451172 C48.4781901,11.2451172 48.5351562,11.2394206 48.6035156,11.2280273 C48.671875,11.2166341 48.7288411,11.2109375 48.7744141,11.2109375 L48.7744141,11.2109375 L49.9023438,11.2109375 C50.0390625,11.1425781 50.2213542,11.1083984 50.4492188,11.1083984 C50.4947917,11.1083984 50.5460612,11.1140951 50.6030273,11.1254883 C50.6599935,11.1368815 50.7226562,11.1425781 50.7910156,11.1425781 L50.7910156,11.1425781 L51.1328125,11.1425781 C51.4290365,11.1425781 51.702474,11.085612 51.953125,10.9716797 C52.0214844,10.9944661 52.1354167,11.0058594 52.2949219,11.0058594 C52.4088542,11.0058594 52.5227865,11.0001628 52.6367188,10.9887695 C52.750651,10.9773763 52.8759766,10.9602865 53.0126953,10.9375 C53.1266276,10.9147135 53.2405599,10.8976237 53.3544922,10.8862305 C53.4684245,10.8748372 53.59375,10.8691406 53.7304688,10.8691406 C53.6848958,10.9830729 53.6336263,11.1140951 53.5766602,11.262207 C53.519694,11.410319 53.4570312,11.5641276 53.3886719,11.7236328 C53.2747396,11.9742839 53.1665039,12.2192383 53.0639648,12.4584961 C52.9614258,12.6977539 52.8304036,12.9996745 52.6708984,13.3642578 L52.6708984,13.3642578 L52.3632812,13.7060547 C52.2265625,14.2073568 52.0670573,14.691569 51.8847656,15.1586914 C51.702474,15.6258138 51.5201823,16.0872396 51.3378906,16.5429688 C51.0188802,17.3860677 50.711263,18.2633464 50.4150391,19.1748047 C50.1188151,20.086263 49.9934896,21.2027995 50.0390625,22.5244141 C50.1302083,22.6611328 50.2042643,22.820638 50.2612305,23.0029297 C50.3181966,23.1852214 50.3694661,23.3789062 50.4150391,23.5839844 C50.460612,23.8346354 50.5232747,24.0852865 50.6030273,24.3359375 C50.6827799,24.5865885 50.8024089,24.8144531 50.9619141,25.0195312 L50.9619141,25.0195312 L50.9619141,25.4296875 L51.2695312,25.6005859 C51.4518229,25.6917318 51.6910807,25.8056641 51.9873047,25.9423828 C52.0784505,26.0791016 52.1809896,26.1702474 52.2949219,26.2158203 C52.4088542,26.2613932 52.5569661,26.3183594 52.7392578,26.3867188 C52.7620443,26.4550781 52.8304036,26.546224 52.9443359,26.6601562 L52.9443359,26.6601562 L53.3544922,26.6601562 Z M80.6982422,27.0019531 L81.2792969,26.796875 C81.3248698,26.7513021 81.3761393,26.6943359 81.4331055,26.6259766 C81.4900716,26.5576172 81.5527344,26.500651 81.6210938,26.4550781 C81.7578125,26.3183594 81.9002279,26.1702474 82.0483398,26.0107422 C82.1964518,25.851237 82.3388672,25.6461589 82.4755859,25.3955078 L82.4755859,25.3955078 L82.578125,25.0195312 C82.6009115,24.9739583 82.6407878,24.8999023 82.6977539,24.7973633 C82.7547201,24.6948242 82.8059896,24.5979818 82.8515625,24.5068359 C82.9882812,24.3017578 83.1193034,24.0795898 83.2446289,23.840332 C83.3699544,23.6010742 83.4440104,23.3561198 83.4667969,23.1054688 C84.4921875,21.8522135 85.1416016,20.6787109 85.4150391,19.5849609 C85.711263,19.2659505 85.9220378,18.992513 86.0473633,18.7646484 C86.1726888,18.5367839 86.3151042,18.2177734 86.4746094,17.8076172 C86.7252604,17.5797526 86.9303385,17.3291016 87.0898438,17.0556641 C87.249349,16.7822266 87.3974609,16.5087891 87.5341797,16.2353516 C87.6708984,15.9847005 87.8076172,15.7397461 87.9443359,15.5004883 C88.0810547,15.2612305 88.2405599,15.061849 88.4228516,14.9023438 L88.4228516,14.9023438 L88.6962891,14.6630859 L88.6279297,14.2871094 C88.8330078,14.0820312 88.992513,13.8712565 89.1064453,13.6547852 C89.2203776,13.4383138 89.3229167,13.2275391 89.4140625,13.0224609 C89.5279948,12.7945964 89.6305339,12.5952148 89.7216797,12.4243164 C89.8128255,12.253418 89.9609375,12.0768229 90.1660156,11.8945312 L90.1660156,11.8945312 L90.3710938,11.6210938 C90.4166667,11.484375 90.456543,11.3704427 90.4907227,11.2792969 C90.5249023,11.188151 90.5647786,11.085612 90.6103516,10.9716797 L90.6103516,10.9716797 L90.7983398,10.7836914 C90.8780924,10.7039388 91.0205078,10.5273438 91.2255859,10.2539062 C91.4078776,9.86653646 91.5445964,9.62158203 91.6357422,9.51904297 C91.726888,9.41650391 91.7838542,9.36523438 91.8066406,9.36523438 L91.8066406,9.36523438 L92.3193359,9.36523438 L92.4560547,8.88671875 C92.6155599,8.31705729 92.9801432,7.88411458 93.5498047,7.58789062 L93.5498047,7.58789062 L93.8232422,7.24609375 C93.9371745,6.99544271 94.0966797,6.76757812 94.3017578,6.5625 C94.5068359,6.35742188 94.7347005,6.15234375 94.9853516,5.94726562 C95.304362,5.69661458 95.6119792,5.4288737 95.9082031,5.14404297 C96.2044271,4.85921224 96.4778646,4.38639323 96.7285156,3.72558594 L96.7285156,3.72558594 L96.5576172,3.28125 C96.5804036,3.19010417 96.5917969,3.07617188 96.5917969,2.93945312 C96.5917969,2.80273438 96.5234375,2.59765625 96.3867188,2.32421875 L96.3867188,2.32421875 L96.0107422,2.08496094 C95.6233724,1.85709635 95.2644857,1.62353516 94.934082,1.38427734 C94.6036784,1.14501953 94.3815104,0.865885417 94.2675781,0.546875 L94.2675781,0.546875 L94.0966797,0 L93.515625,0.13671875 C91.8977865,0.455729167 90.5761719,1.29882812 89.5507812,2.66601562 L89.5507812,2.66601562 L89.3457031,2.97363281 C89.2089844,3.22428385 89.0380859,3.44645182 88.8330078,3.64013672 C88.6279297,3.83382161 88.4114583,4.0218099 88.1835938,4.20410156 L88.1835938,4.20410156 L87.3291016,5.02441406 L87.3974609,5.43457031 L85.0048828,8.68164062 C84.9365234,8.72721354 84.8738607,8.77278646 84.8168945,8.81835938 C84.7599284,8.86393229 84.7086589,8.90950521 84.6630859,8.95507812 C84.5263672,9.09179688 84.3896484,9.19433594 84.2529297,9.26269531 C84.2985026,8.87532552 84.2871094,8.5164388 84.21875,8.18603516 C84.1503906,7.85563151 84.0592448,7.53092448 83.9453125,7.21191406 C83.8541667,6.89290365 83.7744141,6.57389323 83.7060547,6.25488281 C83.6376953,5.9358724 83.6035156,5.57128906 83.6035156,5.16113281 L83.6035156,5.16113281 L83.4326172,4.71679688 C83.3642578,4.62565104 83.3186849,4.54020182 83.2958984,4.46044922 C83.273112,4.38069661 83.2617188,4.23828125 83.2617188,4.03320312 L83.2617188,4.03320312 L83.2617188,3.62304688 L83.2275391,3.14453125 L82.8515625,3.04199219 C82.8059896,2.99641927 82.7718099,2.93945312 82.7490234,2.87109375 C82.726237,2.80273438 82.7148438,2.74576823 82.7148438,2.70019531 L82.7148438,2.70019531 L82.7490234,2.32421875 L82.4072266,2.08496094 C82.0882161,1.90266927 81.7919922,1.73746745 81.5185547,1.58935547 C81.2451172,1.44124349 80.9716797,1.29882812 80.6982422,1.16210938 L80.6982422,1.16210938 L80.0146484,0.8203125 C79.7867839,0.706380208 79.547526,0.569661458 79.296875,0.41015625 L79.296875,0.41015625 L78.9550781,0.205078125 L78.6132812,0.444335938 C78.2486979,0.649414062 77.9923503,0.900065104 77.8442383,1.19628906 C77.6961263,1.49251302 77.6106771,1.80013021 77.5878906,2.11914062 C77.5651042,2.43815104 77.582194,2.76285807 77.6391602,3.09326172 C77.6961263,3.42366536 77.7587891,3.73697917 77.8271484,4.03320312 C77.9182943,4.35221354 77.9923503,4.66552734 78.0493164,4.97314453 C78.1062826,5.28076172 78.0777995,5.52571615 77.9638672,5.70800781 L77.9638672,5.70800781 L77.8955078,6.11816406 C77.9638672,6.3688151 78.0436198,6.57389323 78.1347656,6.73339844 C78.1347656,7.05240885 78.1689453,7.36002604 78.2373047,7.65625 C78.3056641,7.95247396 78.3740234,8.24869792 78.4423828,8.54492188 C78.601888,9.11458333 78.6930339,9.67285156 78.7158203,10.2197266 C78.8525391,10.7210286 79.0519206,11.2849935 79.3139648,11.9116211 C79.5760091,12.5382487 79.8893229,13.1933594 80.2539062,13.8769531 C80.6640625,14.2643229 80.9830729,14.6630859 81.2109375,15.0732422 C81.0742188,15.2783203 80.8976237,15.5745443 80.6811523,15.9619141 C80.464681,16.3492839 80.1741536,16.8733724 79.8095703,17.5341797 C79.3538411,18.3772786 79.0291341,19.0096029 78.8354492,19.4311523 C78.6417643,19.8527018 78.5107422,20.1660156 78.4423828,20.3710938 C78.1233724,20.6673177 77.8955078,21.003418 77.7587891,21.3793945 C77.6220703,21.7553711 77.4967448,22.1370443 77.3828125,22.5244141 C77.2688802,22.8662109 77.1663411,23.1738281 77.0751953,23.4472656 L77.0751953,23.4472656 L77.0410156,23.8232422 C77.4739583,25.6689453 78.6930339,26.7285156 80.6982422,27.0019531 L80.6982422,27.0019531 Z M99.8046875,26.1816406 C100.670573,26.3639323 101.428223,26.4152018 102.077637,26.3354492 C102.727051,26.2556966 103.393555,26.0904948 104.077148,25.8398438 C104.350586,25.8626302 104.669596,25.8455404 105.03418,25.7885742 C105.398763,25.7316081 105.763346,25.6404622 106.12793,25.5151367 C106.492513,25.3898112 106.845703,25.2530924 107.1875,25.1049805 C107.529297,24.9568685 107.825521,24.8144531 108.076172,24.6777344 C108.395182,24.609375 108.708496,24.5410156 109.016113,24.4726563 C109.32373,24.4042969 109.602865,24.2903646 109.853516,24.1308594 C110.240885,23.811849 110.662435,23.5384115 111.118164,23.3105469 C111.573893,23.0826823 111.961263,22.7636719 112.280273,22.3535156 C112.530924,22.2167969 112.747396,22.0060221 112.929688,21.7211914 C113.111979,21.4363607 113.260091,21.1173503 113.374023,20.7641602 C113.487956,20.4109701 113.567708,20.0463867 113.613281,19.6704102 C113.658854,19.2944336 113.658854,18.9469401 113.613281,18.6279297 C113.567708,18.3772786 113.499349,18.1266276 113.408203,17.8759766 C113.317057,17.6253255 113.220215,17.3803711 113.117676,17.1411133 C113.015137,16.9018555 112.929688,16.656901 112.861328,16.40625 C112.792969,16.155599 112.770182,15.8935547 112.792969,15.6201172 C112.246094,14.7314453 111.756185,13.7915039 111.323242,12.800293 C110.890299,11.809082 110.400391,10.8691406 109.853516,9.98046875 C109.944661,9.88932292 109.978841,9.74121094 109.956055,9.53613281 C109.933268,9.42220052 109.864909,9.35953776 109.750977,9.34814453 C109.637044,9.3367513 109.591471,9.25130208 109.614258,9.09179688 C109.842122,8.97786458 109.984538,8.80126953 110.041504,8.56201172 C110.09847,8.32275391 110.183919,8.08919271 110.297852,7.86132812 C110.206706,7.56510417 110.11556,7.36572266 110.024414,7.26318359 C109.933268,7.16064453 109.853516,6.94986979 109.785156,6.63085938 C109.69401,6.60807292 109.631348,6.61946615 109.597168,6.66503906 C109.562988,6.71061198 109.500326,6.72200521 109.40918,6.69921875 C109.363607,6.49414062 109.278158,6.33463542 109.152832,6.22070312 C109.027507,6.10677083 108.896484,5.99853516 108.759766,5.89599609 C108.623047,5.79345703 108.497721,5.67952474 108.383789,5.55419922 C108.269857,5.4288737 108.201497,5.25227865 108.178711,5.02441406 C107.92806,4.77376302 107.637533,4.62565104 107.307129,4.58007812 C106.976725,4.53450521 106.674805,4.44335938 106.401367,4.30664062 C106.105143,4.48893229 105.882975,4.65983073 105.734863,4.81933594 C105.586751,4.97884115 105.421549,5.21809896 105.239258,5.53710938 C104.988607,5.58268229 104.800618,5.60546875 104.675293,5.60546875 C104.549967,5.60546875 104.384766,5.61686198 104.179688,5.63964844 C103.90625,5.98144531 103.672689,6.27197266 103.479004,6.51123047 C103.285319,6.75048828 102.983398,6.96126302 102.573242,7.14355469 L102.573242,7.14355469 L102.573242,7.51953125 C102.390951,7.56510417 102.231445,7.63916016 102.094727,7.74169922 C101.958008,7.84423828 101.826986,7.95247396 101.70166,8.06640625 C101.576335,8.18033854 101.445312,8.2828776 101.308594,8.37402344 C101.171875,8.46516927 101.000977,8.53352865 100.795898,8.57910156 C100.613607,8.89811198 100.368652,9.14306641 100.061035,9.31396484 C99.753418,9.48486328 99.5198568,9.74121094 99.3603516,10.0830078 C99.2464193,10.1057943 99.1495768,10.1627604 99.0698242,10.2539062 C98.9900716,10.3450521 98.9160156,10.4418945 98.8476562,10.5444336 C98.7792969,10.6469727 98.7052409,10.7267253 98.6254883,10.7836914 C98.5457357,10.8406576 98.4375,10.8463542 98.3007812,10.8007813 C97.6855469,11.5299479 97.047526,12.2762044 96.3867188,13.0395508 C95.7259115,13.8028971 95.1391602,14.6346029 94.6264648,15.534668 C94.1137695,16.4347331 93.7207031,17.4145508 93.4472656,18.4741211 C93.1738281,19.5336914 93.1282552,20.7128906 93.3105469,22.0117188 C93.5611979,22.6269531 93.8859049,23.2137044 94.284668,23.7719727 C94.683431,24.3302409 95.1505534,24.8087565 95.6860352,25.2075195 C96.2215169,25.6062826 96.8367513,25.8968099 97.5317383,26.0791016 C98.2267253,26.2613932 98.984375,26.2955729 99.8046875,26.1816406 Z M100.778809,21.2939453 C100.22054,21.3395182 99.679362,21.328125 99.1552734,21.2597656 C98.6311849,21.1914062 98.1754557,20.9977214 97.7880859,20.6787109 C97.8108724,20.1318359 97.9134115,19.6533203 98.0957031,19.2431641 C98.2779948,18.8330078 98.4944661,18.445638 98.7451172,18.0810547 C98.9957682,17.7164714 99.2521159,17.3575846 99.5141602,17.0043945 C99.7762044,16.6512044 99.9983724,16.258138 100.180664,15.8251953 C100.294596,15.7796224 100.362956,15.7625326 100.385742,15.7739258 C100.408529,15.785319 100.465495,15.7682292 100.556641,15.7226562 C101.080729,15.061849 101.673177,14.4807943 102.333984,13.9794922 C102.994792,13.4781901 103.655599,12.9654948 104.316406,12.4414062 C104.430339,12.5325521 104.561361,12.6066081 104.709473,12.6635742 C104.857585,12.7205404 105,12.7547201 105.136719,12.7661133 C105.273438,12.7775065 105.398763,12.7433268 105.512695,12.6635742 C105.626628,12.5838216 105.70638,12.4527995 105.751953,12.2705078 C105.888672,12.4072266 106.013997,12.430013 106.12793,12.3388672 C106.241862,12.2477214 106.321615,12.1565755 106.367188,12.0654297 C106.822917,12.7718099 107.233073,13.5294596 107.597656,14.3383789 C107.96224,15.1472982 108.395182,15.9049479 108.896484,16.6113281 C108.896484,16.8391927 108.907878,17.0043945 108.930664,17.1069336 C108.953451,17.2094727 109.02181,17.351888 109.135742,17.5341797 C109.112956,17.8531901 109.027507,18.0924479 108.879395,18.2519531 C108.731283,18.4114583 108.611654,18.6165365 108.520508,18.8671875 C107.768555,19.2545573 107.050781,19.6362305 106.367188,20.012207 C105.683594,20.3881836 104.863281,20.6901042 103.90625,20.9179688 C103.450521,20.9179688 102.954915,20.9692383 102.419434,21.0717773 C101.883952,21.1743164 101.337077,21.2483724 100.778809,21.2939453 Z M123.525391,25.8740234 C124.482422,25.4638672 125.342611,25.0878906 126.105957,24.7460938 C126.869303,24.4042969 127.552897,24.0340169 128.156738,23.6352539 C128.760579,23.2364909 129.301758,22.7807617 129.780273,22.2680664 C130.258789,21.7553711 130.714518,21.1230469 131.147461,20.3710938 L131.147461,20.3710938 L131.489258,19.9609375 L131.967773,19.8242188 L132.104492,18.9697266 L132.788086,19.2089844 C132.833659,19.1634115 132.890625,19.0722656 132.958984,18.9355469 C133.027344,18.7988281 133.08431,18.6962891 133.129883,18.6279297 C133.221029,18.4684245 133.306478,18.3146159 133.38623,18.1665039 C133.465983,18.0183919 133.562826,17.8873698 133.676758,17.7734375 C133.881836,17.3177083 134.155273,16.7822266 134.49707,16.1669922 C134.838867,15.5517578 135.192057,14.8453776 135.556641,14.0478516 C135.647786,13.5009766 135.733236,12.976888 135.812988,12.4755859 C135.892741,11.9742839 136.023763,11.4274089 136.206055,10.8349609 C136.160482,10.4020182 136.086426,10.0317383 135.983887,9.72412109 C135.881348,9.41650391 135.773112,9.1031901 135.65918,8.78417969 C135.522461,8.44238281 135.397135,8.08919271 135.283203,7.72460938 C135.169271,7.36002604 135.089518,6.92708333 135.043945,6.42578125 C134.793294,6.15234375 134.525553,5.87890625 134.240723,5.60546875 C133.955892,5.33203125 133.631185,5.08138021 133.266602,4.85351562 C132.765299,5.08138021 132.446289,5.41178385 132.30957,5.84472656 C132.218424,6.02701823 132.218424,6.18652344 132.30957,6.32324219 L132.30957,6.32324219 L132.37793,6.69921875 C132.37793,7.109375 132.184245,7.3828125 131.796875,7.51953125 C131.751302,8.15755208 131.665853,8.83544922 131.540527,9.55322266 C131.415202,10.2709961 131.23291,10.9944661 130.993652,11.7236328 C130.754395,12.4527995 130.458171,13.1534831 130.10498,13.8256836 C129.75179,14.4978841 129.335938,15.0960286 128.857422,15.6201172 C128.378906,16.1442057 127.923177,16.6056315 127.490234,17.0043945 C127.057292,17.4031576 126.601562,17.750651 126.123047,18.046875 C125.644531,18.343099 125.126139,18.5994466 124.567871,18.815918 C124.009603,19.0323893 123.388672,19.2317708 122.705078,19.4140625 L122.705078,19.4140625 L122.124023,19.4824219 L121.918945,19.0380859 C121.782227,18.6735026 121.685384,18.2234701 121.628418,17.6879883 C121.571452,17.1525065 121.560059,16.5942383 121.594238,16.0131836 C121.628418,15.4321289 121.708171,14.8567708 121.833496,14.2871094 C121.958822,13.7174479 122.135417,13.2161458 122.363281,12.7832031 C122.340495,12.3958333 122.255046,11.9913737 122.106934,11.5698242 C121.958822,11.1482747 121.79362,10.7438151 121.611328,10.3564453 C121.520182,10.1285807 121.434733,9.91780599 121.35498,9.72412109 C121.275228,9.5304362 121.212565,9.34244792 121.166992,9.16015625 C120.825195,9.0234375 120.568848,8.8297526 120.397949,8.57910156 C120.227051,8.32845052 120.084635,8.10058594 119.970703,7.89550781 C119.856771,7.64485677 119.742839,7.4625651 119.628906,7.34863281 C119.514974,7.23470052 119.298503,7.1891276 118.979492,7.21191406 C118.86556,7.37141927 118.728841,7.54801432 118.569336,7.74169922 C118.409831,7.93538411 118.170573,8.06640625 117.851562,8.13476562 C117.714844,8.56770833 117.612305,9.03483073 117.543945,9.53613281 C117.498372,9.83235677 117.441406,10.1456706 117.373047,10.4760742 C117.304688,10.8064779 117.236328,11.2223307 117.167969,11.7236328 L117.167969,11.7236328 L117.167969,12.0996094 C116.826172,13.125 116.649577,14.292806 116.638184,15.6030273 C116.62679,16.9132487 116.655273,18.3544922 116.723633,19.9267578 L116.723633,19.9267578 L116.757812,20.4736328 C116.803385,20.5419922 116.860352,20.6046549 116.928711,20.6616211 C116.99707,20.7185872 117.054036,20.78125 117.099609,20.8496094 L117.099609,20.8496094 L117.851562,21.6699219 L117.270508,21.8408203 C117.407227,22.0686849 117.532552,22.2908529 117.646484,22.5073242 C117.760417,22.7237956 117.874349,22.9573568 117.988281,23.2080078 C118.170573,23.6181641 118.358561,23.9998372 118.552246,24.3530273 C118.745931,24.7062174 119.036458,24.9739583 119.423828,25.15625 C119.53776,25.15625 119.663086,25.1904297 119.799805,25.2587891 C119.936523,25.3271484 120.039062,25.452474 120.107422,25.6347656 C120.745443,25.703125 121.280924,25.7373047 121.713867,25.7373047 C121.964518,25.7600911 122.232259,25.777181 122.51709,25.7885742 C122.801921,25.7999674 123.138021,25.8284505 123.525391,25.8740234 Z M150.390625,26.9506836 C151.461589,27.1899414 152.35026,27.1728516 153.056641,26.8994141 C153.261719,26.8766276 153.421224,26.8139648 153.535156,26.7114258 C153.649089,26.6088867 153.751628,26.4892578 153.842773,26.3525391 L153.842773,26.3525391 L154.116211,25.9423828 C154.207357,25.8056641 154.321289,25.6917318 154.458008,25.6005859 C154.366862,25.5777995 154.281413,25.5721029 154.20166,25.5834961 C154.121908,25.5948893 154.070638,25.5664062 154.047852,25.4980469 C154.18457,25.3385417 154.264323,25.1277669 154.287109,24.8657227 C154.309896,24.6036784 154.298503,24.3302409 154.25293,24.0454102 C154.207357,23.7605794 154.110514,23.4757487 153.962402,23.190918 C153.81429,22.9060872 153.637695,22.6611328 153.432617,22.4560547 C152.908529,22.4104818 152.504069,22.3706055 152.219238,22.3364258 C151.934408,22.3022461 151.655273,22.2566732 151.381836,22.199707 C151.108398,22.1427409 150.806478,22.0743815 150.476074,21.9946289 C150.145671,21.9148763 149.684245,21.8066406 149.091797,21.6699219 L148.845912,21.6123744 C148.370187,21.4993722 147.990723,21.3989258 147.70752,21.3110352 C147.377116,21.2084961 147.069499,21.0888672 146.784668,20.9521484 C146.499837,20.8154297 146.197917,20.6445312 145.878906,20.4394531 C145.559896,20.234375 145.126953,19.9609375 144.580078,19.6191406 C144.602865,19.5052083 144.574382,19.4482422 144.494629,19.4482422 C144.414876,19.4482422 144.375,19.4026693 144.375,19.3115234 C145.126953,18.992513 145.970052,18.6962891 146.904297,18.4228516 C147.838542,18.1494141 148.71582,17.8133138 149.536133,17.4145508 C150.356445,17.0157878 151.057129,16.5087891 151.638184,15.8935547 C152.219238,15.2783203 152.543945,14.469401 152.612305,13.4667969 C152.635091,13.3072917 152.635091,13.1819661 152.612305,13.0908203 C152.589518,12.9996745 152.561035,12.9085286 152.526855,12.8173828 C152.492676,12.726237 152.475586,12.6407878 152.475586,12.5610352 C152.475586,12.4812826 152.498372,12.3844401 152.543945,12.2705078 C152.361654,11.9287109 152.202148,11.5698242 152.06543,11.1938477 L152.06543,11.1938477 L151.655273,10.065918 C151.518555,9.68994141 151.364746,9.3367513 151.193848,9.00634766 C151.022949,8.67594401 150.800781,8.38541667 150.527344,8.13476562 L150.527344,8.13476562 L150.527344,7.72460938 C150.345052,7.61067708 150.191243,7.50244141 150.065918,7.39990234 C149.940592,7.29736328 149.786784,7.20052083 149.604492,7.109375 C149.239909,6.53971354 148.778483,6.07828776 148.220215,5.72509766 C147.661947,5.37190755 147.154948,5.02441406 146.699219,4.68261719 C145.810547,4.77376302 145.075684,5.05859375 144.494629,5.53710938 C143.913574,6.015625 143.383789,6.5625 142.905273,7.17773438 C142.426758,7.79296875 141.959635,8.42529297 141.503906,9.07470703 C141.048177,9.72412109 140.524089,10.2766927 139.931641,10.7324219 C139.863281,10.5729167 139.675293,10.4418945 139.367676,10.3393555 C139.060059,10.2368164 138.780924,10.2083333 138.530273,10.2539062 C138.302409,10.7552083 138.120117,11.3020833 137.983398,11.8945312 C137.84668,12.4869792 137.715658,13.0908203 137.590332,13.7060547 C137.465007,14.3212891 137.328288,14.9422201 137.180176,15.5688477 C137.032064,16.1954753 136.844076,16.805013 136.616211,17.3974609 C136.638997,17.5113932 136.650391,17.6538086 136.650391,17.824707 C136.650391,17.9956055 136.638997,18.1665039 136.616211,18.3374023 C136.593424,18.5083008 136.559245,18.6450195 136.513672,18.7475586 C136.468099,18.8500977 136.39974,18.8671875 136.308594,18.7988281 C136.445312,19.140625 136.479492,19.4710286 136.411133,19.7900391 C136.342773,20.1090495 136.257324,20.4280599 136.154785,20.7470703 C136.052246,21.0660807 135.966797,21.4078776 135.898438,21.7724609 C135.830078,22.1370443 135.761719,22.5244141 135.693359,22.9345703 C135.784505,23.0940755 135.864258,23.2535807 135.932617,23.4130859 C136.000977,23.5725911 136.092122,23.6523438 136.206055,23.6523438 C136.160482,23.811849 136.149089,23.9428711 136.171875,24.0454102 C136.194661,24.1479492 136.223145,24.2504883 136.257324,24.3530273 C136.291504,24.4555664 136.319987,24.5694987 136.342773,24.6948242 C136.36556,24.8201497 136.354167,24.9739583 136.308594,25.15625 C136.559245,25.1106771 136.713053,25.1676432 136.77002,25.3271484 C136.826986,25.4866536 136.878255,25.6575521 136.923828,25.8398438 C137.128906,25.8398438 137.282715,25.8683268 137.385254,25.925293 C137.487793,25.9822591 137.573242,26.0392253 137.641602,26.0961914 C137.709961,26.1531576 137.789714,26.2044271 137.880859,26.25 C137.972005,26.2955729 138.120117,26.2955729 138.325195,26.25 C138.461914,26.1588542 138.58724,26.0563151 138.701172,25.9423828 C138.815104,25.8284505 139.020182,25.7942708 139.316406,25.8398438 C139.703776,25.3385417 139.994303,24.8543294 140.187988,24.387207 C140.381673,23.9200846 140.603841,23.2307943 140.854492,22.3193359 C141.287435,22.7067057 141.657715,23.0371094 141.965332,23.3105469 C142.272949,23.5839844 142.614746,23.840332 142.990723,24.0795898 C143.366699,24.3188477 143.811035,24.5581055 144.32373,24.7973633 C144.836426,25.0366211 145.50293,25.3157552 146.323242,25.6347656 C147.963867,26.2727865 149.319661,26.7114258 150.390625,26.9506836 Z M142.768555,14.8339844 C142.859701,14.3326823 143.019206,13.894043 143.24707,13.5180664 C143.474935,13.1420898 143.731283,12.800293 144.016113,12.4926758 C144.300944,12.1850586 144.597168,11.883138 144.904785,11.5869141 C145.212402,11.2906901 145.491536,10.9602865 145.742188,10.5957031 C146.17513,10.7324219 146.590983,11.0172526 146.989746,11.4501953 C147.388509,11.883138 147.633464,12.4527995 147.724609,13.1591797 C146.94987,13.4781901 146.129557,13.8142904 145.263672,14.1674805 C144.397786,14.5206706 143.566081,14.7428385 142.768555,14.8339844 Z M170.197754,26.2841797 C170.345866,26.3297526 170.568034,26.3411458 170.864258,26.3183594 C171.502279,26.0221354 171.889648,25.4866536 172.026367,24.7119141 C172.117513,24.2789714 172.07194,23.8916016 171.889648,23.5498047 C171.889648,23.4814453 171.901042,23.4187826 171.923828,23.3618164 C171.946615,23.3048503 171.980794,23.2421875 172.026367,23.1738281 C172.07194,23.0598958 172.111816,22.9402669 172.145996,22.8149414 C172.180176,22.6896159 172.288411,22.5130208 172.470703,22.2851563 L172.470703,22.2851563 L172.470703,21.7724609 C172.630208,21.5673828 172.755534,21.3053385 172.84668,20.9863281 C172.892253,20.8723958 172.937826,20.7641602 172.983398,20.6616211 C173.028971,20.559082 173.108724,20.4622396 173.222656,20.3710938 C173.382161,20.3255208 173.558757,20.2742513 173.752441,20.2172852 C173.946126,20.160319 174.134115,20.1318359 174.316406,20.1318359 L174.316406,20.1318359 L174.794922,20.1318359 C175.136719,19.9951172 175.501302,19.8868815 175.888672,19.8071289 C176.276042,19.7273763 176.674805,19.6647135 177.084961,19.6191406 C177.403971,19.5735677 177.717285,19.5279948 178.024902,19.4824219 C178.33252,19.436849 178.714193,19.3684896 179.169922,19.2773438 C179.352214,19.2773438 179.523112,19.2602539 179.682617,19.2260742 C179.842122,19.1918945 180.001628,19.1520182 180.161133,19.1064453 C180.457357,18.992513 180.799154,18.9469401 181.186523,18.9697266 L181.186523,18.9697266 L181.665039,18.8330078 L183.066406,16.8505859 C183.04362,16.6227214 182.99235,16.4518229 182.912598,16.3378906 C182.832845,16.2239583 182.747396,16.1442057 182.65625,16.0986328 L182.65625,16.0986328 L182.485352,15.7910156 C182.416992,15.7454427 182.354329,15.711263 182.297363,15.6884766 C182.240397,15.6656901 182.143555,15.6201172 182.006836,15.5517578 L182.006836,15.5517578 L181.835938,15.0732422 L182.109375,14.7998047 L181.015625,14.7998047 C180.423177,14.7998047 179.847819,14.8339844 179.289551,14.9023438 C178.731283,14.9707031 178.190104,15.0504557 177.666016,15.1416016 C177.278646,15.2099609 176.891276,15.2669271 176.503906,15.3125 C176.116536,15.3580729 175.70638,15.2897135 175.273438,15.1074219 C175.227865,14.9251302 175.227865,14.7713216 175.273438,14.6459961 C175.31901,14.5206706 175.421549,14.3212891 175.581055,14.0478516 C175.581055,13.3870443 175.77474,12.8173828 176.162109,12.3388672 C176.184896,12.2249349 176.201986,12.1223958 176.213379,12.03125 C176.224772,11.9401042 176.241862,11.8489583 176.264648,11.7578125 C176.287435,11.6210938 176.310221,11.4786784 176.333008,11.3305664 C176.355794,11.1824544 176.44694,10.9830729 176.606445,10.7324219 L176.606445,10.7324219 L177.22168,10.4248047 C177.768555,10.2197266 178.406576,10.0260417 179.135742,9.84375 C179.864909,9.66145833 180.622559,9.50764974 181.408691,9.38232422 C182.194824,9.2569987 182.963867,9.16015625 183.71582,9.09179688 C184.467773,9.0234375 185.128581,8.98925781 185.698242,8.98925781 L185.698242,8.98925781 L186.091309,8.98925781 C186.216634,8.98925781 186.404622,9.00065104 186.655273,9.0234375 L186.655273,9.0234375 L187.03125,8.81835938 C187.35026,8.77278646 187.612305,8.60188802 187.817383,8.30566406 C187.954102,7.8499349 187.828776,7.32584635 187.441406,6.73339844 C187.395833,6.71061198 187.333171,6.66503906 187.253418,6.59667969 C187.173665,6.52832031 187.099609,6.44856771 187.03125,6.35742188 C186.894531,6.22070312 186.746419,6.08398438 186.586914,5.94726562 C186.427409,5.81054688 186.245117,5.68522135 186.040039,5.57128906 C185.766602,4.95605469 185.117188,4.6484375 184.091797,4.6484375 C183.977865,4.6484375 183.863932,4.65413411 183.75,4.66552734 C183.636068,4.67692057 183.522135,4.67122396 183.408203,4.6484375 L183.408203,4.6484375 L182.827148,4.68261719 C181.665039,4.79654948 180.616862,4.95035807 179.682617,5.14404297 C178.748372,5.33772786 177.996419,5.51432292 177.426758,5.67382812 C177.062174,5.78776042 176.743164,5.89029948 176.469727,5.98144531 C176.424154,6.04980469 176.344401,6.08968099 176.230469,6.10107422 C176.116536,6.11246745 175.991211,6.12955729 175.854492,6.15234375 C175.694987,6.17513021 175.524089,6.20361328 175.341797,6.23779297 C175.159505,6.27197266 174.988607,6.34602865 174.829102,6.45996094 C174.373372,6.57389323 173.92334,6.70491536 173.479004,6.85302734 C173.034668,7.00113932 172.596029,7.14355469 172.163086,7.28027344 C171.707357,7.43977865 171.257324,7.59358724 170.812988,7.74169922 C170.368652,7.8898112 169.91862,8.02083333 169.462891,8.13476562 L169.462891,8.13476562 L169.155273,8.44238281 C169.155273,8.46516927 169.064128,8.60188802 168.881836,8.85253906 L168.881836,8.85253906 L168.813477,9.19433594 C168.767904,9.28548177 168.767904,9.45638021 168.813477,9.70703125 C168.904622,9.84375 168.950195,9.94628906 168.950195,10.0146484 C168.950195,10.0830078 168.927409,10.139974 168.881836,10.1855469 L168.881836,10.1855469 L168.710938,10.5273438 L169.052734,10.7666016 C169.257812,10.9488932 169.428711,11.188151 169.56543,11.484375 C169.656576,11.6210938 169.753418,11.7635091 169.855957,11.9116211 C169.958496,12.0597331 170.146484,12.2363281 170.419922,12.4414063 C170.602214,12.4869792 170.716146,12.5097656 170.761719,12.5097656 C170.94401,12.5325521 171.114909,12.6009115 171.274414,12.7148438 C171.160482,12.9654948 171.114909,13.2389323 171.137695,13.5351563 C171.023763,13.7402344 170.926921,13.9453125 170.847168,14.1503906 C170.767415,14.3554688 170.693359,14.5605469 170.625,14.765625 C170.579427,14.9479167 170.528158,15.1131185 170.471191,15.2612305 C170.414225,15.4093424 170.30599,15.5175781 170.146484,15.5859375 C169.941406,15.4720052 169.736328,15.3125 169.53125,15.1074219 L169.53125,15.1074219 L169.086914,14.9365234 C168.836263,15.0048828 168.579915,15.0846354 168.317871,15.1757813 C168.055827,15.2669271 167.805176,15.3922526 167.565918,15.5517578 C167.32666,15.711263 167.115885,15.9220378 166.933594,16.184082 C166.751302,16.4461263 166.625977,16.7936198 166.557617,17.2265625 C166.60319,17.7734375 166.774089,18.343099 167.070312,18.9355469 C167.366536,19.5279948 167.810872,19.983724 168.40332,20.3027344 C168.357747,20.4394531 168.312174,20.5818685 168.266602,20.7299805 C168.221029,20.8780924 168.175456,21.0205078 168.129883,21.1572266 C167.993164,21.5901693 167.879232,22.0288086 167.788086,22.4731445 C167.69694,22.9174805 167.719727,23.4700521 167.856445,24.1308594 C168.038737,24.4726563 168.221029,24.757487 168.40332,24.9853516 C168.494466,25.0992839 168.574219,25.2132161 168.642578,25.3271484 C168.710938,25.4410807 168.767904,25.555013 168.813477,25.6689453 L168.813477,25.6689453 L169.189453,25.9423828 C169.348958,25.9651693 169.53125,26.0221354 169.736328,26.1132813 C169.895833,26.1816406 170.049642,26.2386068 170.197754,26.2841797 Z M198.208008,26.9506836 C199.278971,27.1899414 200.167643,27.1728516 200.874023,26.8994141 C201.079102,26.8766276 201.238607,26.8139648 201.352539,26.7114258 C201.466471,26.6088867 201.56901,26.4892578 201.660156,26.3525391 C201.751302,26.2158203 201.842448,26.0791016 201.933594,25.9423828 C202.02474,25.8056641 202.138672,25.6917318 202.275391,25.6005859 C202.184245,25.5777995 202.098796,25.5721029 202.019043,25.5834961 C201.93929,25.5948893 201.888021,25.5664062 201.865234,25.4980469 C202.001953,25.3385417 202.081706,25.1277669 202.104492,24.8657227 C202.127279,24.6036784 202.115885,24.3302409 202.070312,24.0454102 C202.02474,23.7605794 201.927897,23.4757487 201.779785,23.190918 C201.631673,22.9060872 201.455078,22.6611328 201.25,22.4560547 C200.725911,22.4104818 200.321452,22.3706055 200.036621,22.3364258 C199.75179,22.3022461 199.472656,22.2566732 199.199219,22.199707 C198.925781,22.1427409 198.623861,22.0743815 198.293457,21.9946289 C197.963053,21.9148763 197.501628,21.8066406 196.90918,21.6699219 L196.663295,21.6123744 C196.18757,21.4993722 195.808105,21.3989258 195.524902,21.3110352 C195.194499,21.2084961 194.886882,21.0888672 194.602051,20.9521484 C194.31722,20.8154297 194.015299,20.6445312 193.696289,20.4394531 C193.377279,20.234375 192.944336,19.9609375 192.397461,19.6191406 C192.420247,19.5052083 192.391764,19.4482422 192.312012,19.4482422 C192.232259,19.4482422 192.192383,19.4026693 192.192383,19.3115234 C192.944336,18.992513 193.787435,18.6962891 194.72168,18.4228516 C195.655924,18.1494141 196.533203,17.8133138 197.353516,17.4145508 C198.173828,17.0157878 198.874512,16.5087891 199.455566,15.8935547 C200.036621,15.2783203 200.361328,14.469401 200.429688,13.4667969 C200.452474,13.3072917 200.452474,13.1819661 200.429688,13.0908203 C200.406901,12.9996745 200.378418,12.9085286 200.344238,12.8173828 C200.310059,12.726237 200.292969,12.6407878 200.292969,12.5610352 C200.292969,12.4812826 200.315755,12.3844401 200.361328,12.2705078 C200.179036,11.9287109 200.019531,11.5698242 199.882812,11.1938477 L199.882812,11.1938477 L199.472656,10.065918 C199.335938,9.68994141 199.182129,9.3367513 199.01123,9.00634766 C198.840332,8.67594401 198.618164,8.38541667 198.344727,8.13476562 L198.344727,8.13476562 L198.344727,7.72460938 C198.162435,7.61067708 198.008626,7.50244141 197.883301,7.39990234 C197.757975,7.29736328 197.604167,7.20052083 197.421875,7.109375 C197.057292,6.53971354 196.595866,6.07828776 196.037598,5.72509766 C195.479329,5.37190755 194.972331,5.02441406 194.516602,4.68261719 C193.62793,4.77376302 192.893066,5.05859375 192.312012,5.53710938 C191.730957,6.015625 191.201172,6.5625 190.722656,7.17773438 C190.244141,7.79296875 189.777018,8.42529297 189.321289,9.07470703 C188.86556,9.72412109 188.341471,10.2766927 187.749023,10.7324219 C187.680664,10.5729167 187.492676,10.4418945 187.185059,10.3393555 C186.877441,10.2368164 186.598307,10.2083333 186.347656,10.2539062 C186.119792,10.7552083 185.9375,11.3020833 185.800781,11.8945312 C185.664062,12.4869792 185.53304,13.0908203 185.407715,13.7060547 C185.282389,14.3212891 185.145671,14.9422201 184.997559,15.5688477 C184.849447,16.1954753 184.661458,16.805013 184.433594,17.3974609 C184.45638,17.5113932 184.467773,17.6538086 184.467773,17.824707 C184.467773,17.9956055 184.45638,18.1665039 184.433594,18.3374023 C184.410807,18.5083008 184.376628,18.6450195 184.331055,18.7475586 C184.285482,18.8500977 184.217122,18.8671875 184.125977,18.7988281 C184.262695,19.140625 184.296875,19.4710286 184.228516,19.7900391 C184.160156,20.1090495 184.074707,20.4280599 183.972168,20.7470703 C183.869629,21.0660807 183.78418,21.4078776 183.71582,21.7724609 C183.647461,22.1370443 183.579102,22.5244141 183.510742,22.9345703 C183.601888,23.0940755 183.681641,23.2535807 183.75,23.4130859 C183.818359,23.5725911 183.909505,23.6523438 184.023438,23.6523438 C183.977865,23.811849 183.966471,23.9428711 183.989258,24.0454102 C184.012044,24.1479492 184.040527,24.2504883 184.074707,24.3530273 C184.108887,24.4555664 184.13737,24.5694987 184.160156,24.6948242 C184.182943,24.8201497 184.171549,24.9739583 184.125977,25.15625 C184.376628,25.1106771 184.530436,25.1676432 184.587402,25.3271484 C184.644368,25.4866536 184.695638,25.6575521 184.741211,25.8398438 C184.946289,25.8398438 185.100098,25.8683268 185.202637,25.925293 C185.305176,25.9822591 185.390625,26.0392253 185.458984,26.0961914 C185.527344,26.1531576 185.607096,26.2044271 185.698242,26.25 C185.789388,26.2955729 185.9375,26.2955729 186.142578,26.25 C186.279297,26.1588542 186.404622,26.0563151 186.518555,25.9423828 C186.632487,25.8284505 186.837565,25.7942708 187.133789,25.8398438 C187.521159,25.3385417 187.811686,24.8543294 188.005371,24.387207 C188.199056,23.9200846 188.421224,23.2307943 188.671875,22.3193359 C189.104818,22.7067057 189.475098,23.0371094 189.782715,23.3105469 C190.090332,23.5839844 190.432129,23.840332 190.808105,24.0795898 C191.184082,24.3188477 191.628418,24.5581055 192.141113,24.7973633 C192.653809,25.0366211 193.320312,25.3157552 194.140625,25.6347656 C195.78125,26.2727865 197.137044,26.7114258 198.208008,26.9506836 Z M190.585938,14.8339844 C190.677083,14.3326823 190.836589,13.894043 191.064453,13.5180664 C191.292318,13.1420898 191.548665,12.800293 191.833496,12.4926758 C192.118327,12.1850586 192.414551,11.883138 192.722168,11.5869141 C193.029785,11.2906901 193.308919,10.9602865 193.55957,10.5957031 C193.992513,10.7324219 194.408366,11.0172526 194.807129,11.4501953 C195.205892,11.883138 195.450846,12.4527995 195.541992,13.1591797 C194.767253,13.4781901 193.94694,13.8142904 193.081055,14.1674805 C192.215169,14.5206706 191.383464,14.7428385 190.585938,14.8339844 Z M207.607422,26.3183594 C208.359375,26.3411458 209.099935,26.3069661 209.829102,26.2158203 C210.558268,26.1246745 211.184896,26.0221354 211.708984,25.9082031 C211.891276,25.9082031 212.050781,25.9366862 212.1875,25.9936523 C212.324219,26.0506185 212.495117,26.0563151 212.700195,26.0107422 C213.543294,25.851237 214.312337,25.7145182 215.007324,25.6005859 C215.702311,25.4866536 216.334635,25.3271484 216.904297,25.1220703 C217.473958,24.9169922 217.980957,24.6150716 218.425293,24.2163086 C218.869629,23.8175456 219.262695,23.2421875 219.604492,22.4902344 C219.467773,22.5130208 219.370931,22.4845378 219.313965,22.4047852 C219.256999,22.3250326 219.217122,22.2281901 219.194336,22.1142578 C219.171549,22.0003255 219.143066,21.8806966 219.108887,21.7553711 C219.074707,21.6300456 219.012044,21.5218099 218.920898,21.4306641 C218.71582,21.4534505 218.544922,21.4078776 218.408203,21.2939453 C218.271484,21.180013 218.140462,21.0489909 218.015137,20.9008789 C217.889811,20.7527669 217.758789,20.5932617 217.62207,20.4223633 C217.485352,20.2514648 217.325846,20.1318359 217.143555,20.0634766 C216.619466,20.2457682 216.044108,20.3767904 215.41748,20.456543 C214.790853,20.5362956 214.249674,20.7014974 213.793945,20.9521484 C213.064779,20.929362 212.460938,20.9464518 211.982422,21.003418 C211.503906,21.0603841 211.036784,21.1173503 210.581055,21.1743164 C210.125326,21.2312826 209.641113,21.2711589 209.128418,21.2939453 C208.615723,21.3167318 207.972005,21.2711589 207.197266,21.1572266 C207.42513,20.5419922 207.687174,19.9609375 207.983398,19.4140625 C208.279622,18.8671875 208.610026,18.3544922 208.974609,17.8759766 C209.248047,17.9671224 209.561361,18.0069987 209.914551,17.9956055 C210.267741,17.9842122 210.569661,18.0354818 210.820312,18.1494141 C211.002604,18.0354818 211.258952,18.0013021 211.589355,18.046875 L211.748386,18.0630154 C212.003151,18.0788393 212.206489,18.0392795 212.358398,17.9443359 C212.449544,18.0126953 212.5236,18.046875 212.580566,18.046875 L212.580566,18.046875 L212.836914,18.046875 C213.383789,18.0696615 213.879395,18.0183919 214.32373,17.8930664 C214.768066,17.7677409 215.189616,17.6025391 215.588379,17.3974609 C215.987142,17.1923828 216.368815,16.9588216 216.733398,16.6967773 C217.097982,16.4347331 217.462565,16.1783854 217.827148,15.9277344 C217.918294,15.6998698 217.946777,15.4777018 217.912598,15.2612305 C217.878418,15.0447591 217.815755,14.8453776 217.724609,14.6630859 C217.496745,14.6858724 217.297363,14.6459961 217.126465,14.543457 C216.955566,14.440918 216.790365,14.3098958 216.630859,14.1503906 C216.471354,13.9908854 216.311849,13.8256836 216.152344,13.6547852 C215.992839,13.4838867 215.833333,13.3414714 215.673828,13.2275391 C215.651042,13.1363932 215.662435,13.0737305 215.708008,13.0395508 C215.753581,13.0053711 215.764974,12.9313151 215.742188,12.8173828 C214.807943,12.8401693 213.856608,12.8971354 212.888184,12.9882812 C211.919759,13.0794271 211.036784,13.0908203 210.239258,13.0224609 C210.170898,12.8857422 210.142415,12.7091471 210.153809,12.4926758 C210.165202,12.2762044 210.125326,12.0654297 210.03418,11.8603516 C210.239258,11.7919922 210.444336,11.7293294 210.649414,11.6723633 C210.854492,11.6153971 211.025391,11.5185547 211.162109,11.3818359 C211.617839,11.4274089 211.965332,11.3932292 212.20459,11.2792969 C212.443848,11.1653646 212.711589,11.1653646 213.007812,11.2792969 C213.759766,10.8235677 214.517415,10.5273438 215.280762,10.390625 C216.044108,10.2539062 216.790365,10.1228841 217.519531,9.99755859 C218.248698,9.87223307 218.926595,9.66715495 219.553223,9.38232422 C220.17985,9.09749349 220.732422,8.56770833 221.210938,7.79296875 C221.165365,7.63346354 221.142578,7.51383464 221.142578,7.43408203 C221.142578,7.35432943 221.148275,7.28027344 221.159668,7.21191406 C221.171061,7.14355469 221.182454,7.0694987 221.193848,6.98974609 C221.205241,6.90999349 221.199544,6.79036458 221.176758,6.63085938 C220.743815,6.44856771 220.350749,6.22639974 219.997559,5.96435547 C219.644368,5.7023112 219.353841,5.37760417 219.125977,4.99023438 C219.148763,5.1953125 219.097493,5.25797526 218.972168,5.17822266 C218.846842,5.09847005 218.738607,5.16113281 218.647461,5.36621094 C218.465169,5.36621094 218.271484,5.26367188 218.066406,5.05859375 C217.109375,5.24088542 216.254883,5.37760417 215.50293,5.46875 C214.750977,5.55989583 214.027507,5.65673828 213.33252,5.75927734 C212.637533,5.86181641 211.931152,5.99283854 211.213379,6.15234375 C210.495605,6.31184896 209.68099,6.53971354 208.769531,6.8359375 C208.268229,6.94986979 207.789714,7.05240885 207.333984,7.14355469 C206.878255,7.23470052 206.456706,7.34863281 206.069336,7.48535156 C205.681966,7.62207031 205.323079,7.79866536 204.992676,8.01513672 C204.662272,8.23160807 204.383138,8.51074219 204.155273,8.85253906 C204.269206,9.23990885 204.348958,9.62158203 204.394531,9.99755859 C204.440104,10.3735352 204.49707,10.7381185 204.56543,11.0913086 C204.633789,11.4444987 204.742025,11.7976888 204.890137,12.1508789 C205.038249,12.504069 205.27181,12.828776 205.59082,13.125 C205.431315,13.5579427 205.266113,13.9510091 205.095215,14.3041992 C204.924316,14.6573893 204.753418,15.0048828 204.58252,15.3466797 C204.411621,15.6884766 204.246419,16.0416667 204.086914,16.40625 C203.927409,16.7708333 203.779297,17.1582031 203.642578,17.5683594 C203.483073,17.5455729 203.391927,17.5854492 203.369141,17.6879883 C203.346354,17.7905273 203.277995,17.8531901 203.164062,17.8759766 C203.232422,18.194987 203.158366,18.4912109 202.941895,18.7646484 C202.725423,19.0380859 202.583008,19.3457031 202.514648,19.6875 C202.446289,20.0065104 202.429199,20.3597005 202.463379,20.7470703 C202.497559,21.1344401 202.548828,21.5275065 202.617188,21.9262695 C202.685547,22.3250326 202.753906,22.7067057 202.822266,23.0712891 C202.890625,23.4358724 202.936198,23.766276 202.958984,24.0625 C203.209635,24.1764323 203.363444,24.3416341 203.42041,24.5581055 C203.477376,24.7745768 203.597005,24.9625651 203.779297,25.1220703 C204.21224,25.555013 204.770508,25.8569336 205.454102,26.027832 C206.137695,26.1987305 206.855469,26.2955729 207.607422,26.3183594 Z M225.859375,26.3183594 C226.611328,26.3411458 227.351888,26.3069661 228.081055,26.2158203 C228.810221,26.1246745 229.436849,26.0221354 229.960938,25.9082031 C230.143229,25.9082031 230.302734,25.9366862 230.439453,25.9936523 C230.576172,26.0506185 230.74707,26.0563151 230.952148,26.0107422 C231.795247,25.851237 232.56429,25.7145182 233.259277,25.6005859 C233.954264,25.4866536 234.586589,25.3271484 235.15625,25.1220703 C235.725911,24.9169922 236.23291,24.6150716 236.677246,24.2163086 C237.121582,23.8175456 237.514648,23.2421875 237.856445,22.4902344 C237.719727,22.5130208 237.622884,22.4845378 237.565918,22.4047852 C237.508952,22.3250326 237.469076,22.2281901 237.446289,22.1142578 C237.423503,22.0003255 237.39502,21.8806966 237.36084,21.7553711 C237.32666,21.6300456 237.263997,21.5218099 237.172852,21.4306641 C236.967773,21.4534505 236.796875,21.4078776 236.660156,21.2939453 C236.523438,21.180013 236.392415,21.0489909 236.26709,20.9008789 C236.141764,20.7527669 236.010742,20.5932617 235.874023,20.4223633 C235.737305,20.2514648 235.577799,20.1318359 235.395508,20.0634766 C234.871419,20.2457682 234.296061,20.3767904 233.669434,20.456543 C233.042806,20.5362956 232.501628,20.7014974 232.045898,20.9521484 C231.316732,20.929362 230.712891,20.9464518 230.234375,21.003418 C229.755859,21.0603841 229.288737,21.1173503 228.833008,21.1743164 C228.377279,21.2312826 227.893066,21.2711589 227.380371,21.2939453 C226.867676,21.3167318 226.223958,21.2711589 225.449219,21.1572266 C225.677083,20.5419922 225.939128,19.9609375 226.235352,19.4140625 C226.531576,18.8671875 226.861979,18.3544922 227.226562,17.8759766 C227.5,17.9671224 227.813314,18.0069987 228.166504,17.9956055 C228.519694,17.9842122 228.821615,18.0354818 229.072266,18.1494141 C229.254557,18.0354818 229.510905,18.0013021 229.841309,18.046875 L230.000339,18.0630154 C230.255104,18.0788393 230.458442,18.0392795 230.610352,17.9443359 C230.701497,18.0126953 230.775553,18.046875 230.83252,18.046875 L230.83252,18.046875 L231.088867,18.046875 C231.635742,18.0696615 232.131348,18.0183919 232.575684,17.8930664 C233.02002,17.7677409 233.441569,17.6025391 233.840332,17.3974609 C234.239095,17.1923828 234.620768,16.9588216 234.985352,16.6967773 C235.349935,16.4347331 235.714518,16.1783854 236.079102,15.9277344 C236.170247,15.6998698 236.19873,15.4777018 236.164551,15.2612305 C236.130371,15.0447591 236.067708,14.8453776 235.976562,14.6630859 C235.748698,14.6858724 235.549316,14.6459961 235.378418,14.543457 C235.20752,14.440918 235.042318,14.3098958 234.882812,14.1503906 C234.723307,13.9908854 234.563802,13.8256836 234.404297,13.6547852 C234.244792,13.4838867 234.085286,13.3414714 233.925781,13.2275391 C233.902995,13.1363932 233.914388,13.0737305 233.959961,13.0395508 C234.005534,13.0053711 234.016927,12.9313151 233.994141,12.8173828 C233.059896,12.8401693 232.108561,12.8971354 231.140137,12.9882812 C230.171712,13.0794271 229.288737,13.0908203 228.491211,13.0224609 C228.422852,12.8857422 228.394368,12.7091471 228.405762,12.4926758 C228.417155,12.2762044 228.377279,12.0654297 228.286133,11.8603516 C228.491211,11.7919922 228.696289,11.7293294 228.901367,11.6723633 C229.106445,11.6153971 229.277344,11.5185547 229.414062,11.3818359 C229.869792,11.4274089 230.217285,11.3932292 230.456543,11.2792969 C230.695801,11.1653646 230.963542,11.1653646 231.259766,11.2792969 C232.011719,10.8235677 232.769368,10.5273438 233.532715,10.390625 C234.296061,10.2539062 235.042318,10.1228841 235.771484,9.99755859 C236.500651,9.87223307 237.178548,9.66715495 237.805176,9.38232422 C238.431803,9.09749349 238.984375,8.56770833 239.462891,7.79296875 C239.417318,7.63346354 239.394531,7.51383464 239.394531,7.43408203 C239.394531,7.35432943 239.400228,7.28027344 239.411621,7.21191406 C239.423014,7.14355469 239.434408,7.0694987 239.445801,6.98974609 C239.457194,6.90999349 239.451497,6.79036458 239.428711,6.63085938 C238.995768,6.44856771 238.602702,6.22639974 238.249512,5.96435547 C237.896322,5.7023112 237.605794,5.37760417 237.37793,4.99023438 C237.400716,5.1953125 237.349447,5.25797526 237.224121,5.17822266 C237.098796,5.09847005 236.99056,5.16113281 236.899414,5.36621094 C236.717122,5.36621094 236.523438,5.26367188 236.318359,5.05859375 C235.361328,5.24088542 234.506836,5.37760417 233.754883,5.46875 C233.00293,5.55989583 232.27946,5.65673828 231.584473,5.75927734 C230.889486,5.86181641 230.183105,5.99283854 229.465332,6.15234375 C228.747559,6.31184896 227.932943,6.53971354 227.021484,6.8359375 C226.520182,6.94986979 226.041667,7.05240885 225.585938,7.14355469 C225.130208,7.23470052 224.708659,7.34863281 224.321289,7.48535156 C223.933919,7.62207031 223.575033,7.79866536 223.244629,8.01513672 C222.914225,8.23160807 222.635091,8.51074219 222.407227,8.85253906 C222.521159,9.23990885 222.600911,9.62158203 222.646484,9.99755859 C222.692057,10.3735352 222.749023,10.7381185 222.817383,11.0913086 C222.885742,11.4444987 222.993978,11.7976888 223.14209,12.1508789 C223.290202,12.504069 223.523763,12.828776 223.842773,13.125 C223.683268,13.5579427 223.518066,13.9510091 223.347168,14.3041992 C223.17627,14.6573893 223.005371,15.0048828 222.834473,15.3466797 C222.663574,15.6884766 222.498372,16.0416667 222.338867,16.40625 C222.179362,16.7708333 222.03125,17.1582031 221.894531,17.5683594 C221.735026,17.5455729 221.64388,17.5854492 221.621094,17.6879883 C221.598307,17.7905273 221.529948,17.8531901 221.416016,17.8759766 C221.484375,18.194987 221.410319,18.4912109 221.193848,18.7646484 C220.977376,19.0380859 220.834961,19.3457031 220.766602,19.6875 C220.698242,20.0065104 220.681152,20.3597005 220.715332,20.7470703 C220.749512,21.1344401 220.800781,21.5275065 220.869141,21.9262695 C220.9375,22.3250326 221.005859,22.7067057 221.074219,23.0712891 C221.142578,23.4358724 221.188151,23.766276 221.210938,24.0625 C221.461589,24.1764323 221.615397,24.3416341 221.672363,24.5581055 C221.729329,24.7745768 221.848958,24.9625651 222.03125,25.1220703 C222.464193,25.555013 223.022461,25.8569336 223.706055,26.027832 C224.389648,26.1987305 225.107422,26.2955729 225.859375,26.3183594 Z" id="GetYourfree" fill-rule="nonzero"></path>
                <g id="Group-3" transform="translate(165.000000, 29.874023)" stroke="#F27D21">
                    <path d="M74.5732892,7.06549309 C74.0240528,7.48176153 73.0749458,7.6376387 72.2440638,7.44258906 C57.1864981,3.91072772 39.6167199,2.12179745 24.6396243,2.80333339 C19.2511549,3.06600024 15.2199304,3.42830495 12.5407149,3.89106022 C8.03163002,4.62168366 5.27001531,5.7523214 4.25642196,7.28346107 C4.04146741,7.60513043 3.6567539,7.82114791 3.10145466,7.9323262 C2.54780892,8.04334195 1.98727361,8.01766042 1.41957315,7.8560943 C0.872265812,7.70021713 0.434364825,7.42909813 0.197088079,7.09913916 C-0.0490073148,6.75682704 -0.0644399487,6.42589282 0.149687847,6.10454854 C1.62736254,3.91284076 5.23997679,2.34350387 10.9897352,1.39686295 C13.9299276,0.907450899 18.2091765,0.526453937 23.8266552,0.254847314 C40.6473994,-0.540792673 55.1722637,0.413000064 71.9400961,4.73546261 L73.8305937,5.2533194 C75.0084344,5.57596402 75.3713768,6.46100175 74.5732892,7.06549309" id="Fill-1"></path>
                </g>
            </g>
        </g>
    </g>
</svg>