<?xml version="1.0" encoding="UTF-8"?>
<svg width="192px" height="50px" viewBox="0 0 192 50" version="1.1" xmlns="http://www.w3.org/2000/svg" xmlns:xlink="http://www.w3.org/1999/xlink">
    <!-- Generator: sketchtool 61.1 (101010) - https://sketch.com -->
    <title>3AF84736-D245-4055-BE85-517D963C6931</title>
    <desc>Created with sketchtool.</desc>
    <defs>
        <polygon id="path-1" points="0 0 34.7259344 0 34.7259344 34.7009304 0 34.7009304"></polygon>
        <polygon id="path-3" points="0 50 191.702113 50 191.702113 0 0 0"></polygon>
    </defs>
    <g id="Asset-Artboard-Page" stroke="none" stroke-width="1" fill="none" fill-rule="evenodd">
        <g id="Ricoma-Logo-Gray">
            <g>
                <g id="Group-3">
                    <mask id="mask-2" fill="white">
                        <use xlink:href="#path-1"></use>
                    </mask>
                    <g id="Clip-2"></g>
                    <path d="M34.725935,31.5369772 L34.725935,3.16372097 C34.725935,2.79976748 34.6630987,2.45093027 34.5490623,2.12534887 C34.1604077,1.07883722 33.1759714,0.231162794 32.0612077,0.0404651168 L32.0425895,0.0369767447 C32.037935,0.035813954 32.0332804,0.035813954 32.0286259,0.0346511633 C31.8750259,0.0125581397 31.7190986,-0.000232558134 31.5596804,-0.000232558134 L3.16578913,-0.000232558134 C1.42498911,-0.000232558134 -0.000465454534,1.42418607 -0.000465454534,3.16372097 L-0.000465454534,31.5369772 C-0.000465454534,31.8997679 0.06237091,32.2486051 0.177570912,32.5753493 C0.565061826,33.6218609 1.5494982,34.4695354 2.66426185,34.660233 C2.67124367,34.6613958 2.67706186,34.6625586 2.68288004,34.6625586 C2.68753458,34.6637214 2.69218913,34.6637214 2.69800731,34.6648842 C2.85044368,34.68814 3.00753459,34.7009307 3.16578913,34.7009307 L15.2838984,34.7009307 L3.73131642,19.8381398 L9.87648014,19.8381398 L21.4302258,34.7009307 L25.1259349,34.7009307 L13.5721893,19.8381398 L20.7948803,19.8381398 C22.0620803,19.8381398 22.984844,19.5358142 23.6190258,18.90907 C24.2473894,18.2858142 24.5522622,17.3730235 24.5522622,16.1253491 C24.5522622,14.3079072 24.0111712,12.4497676 19.9896439,12.4497676 L7.82615284,12.4497676 L4.0315346,7.56720941 L20.9566257,7.56720941 C23.6271712,7.56720941 25.7973531,8.3567443 27.4054986,9.91604665 C29.0217895,11.4858141 29.8409895,13.6009304 29.8409895,16.2055816 C29.8409895,18.581163 29.1044077,20.5474421 27.6533531,22.0451166 C26.6060804,23.1265119 25.2201894,23.8893027 23.5166258,24.326512 L31.2710986,34.7009307 L31.5596804,34.7009307 C33.3004805,34.7009307 34.725935,33.2765121 34.725935,31.5369772" id="Fill-1" fill="#F17D21" mask="url(#mask-2)"></path>
                </g>
                <mask id="mask-4" fill="white">
                    <use xlink:href="#path-3"></use>
                </mask>
                <g id="Clip-5"></g>
                <polygon id="Fill-4" fill="#59595C" mask="url(#mask-4)" points="64.1384721 34.6999995 69.0245811 34.6999995 69.0245811 6.50930238 64.1384721 6.50930238"></polygon>
                <path d="M71.982777,15.5076741 C71.982777,13.88093 72.3248861,12.4681393 73.0125952,11.2716277 C73.6991406,10.0751161 74.616086,9.07860453 75.7657587,8.27976733 C76.9154314,7.48441851 78.2326678,6.89255806 79.7174677,6.50999993 C81.2022677,6.1274418 82.7429222,5.93558134 84.3394313,5.93558134 C85.5205222,5.93558134 86.7109222,6.04720924 87.908304,6.27046505 C89.1056857,6.49372086 90.247213,6.86813946 91.3328857,7.39372084 C92.4185584,7.92162781 93.4088129,8.62395337 94.3024856,9.50069754 C95.1961584,10.3786045 95.9467038,11.4716277 96.5529583,12.7786044 L92.1474311,14.7890695 C91.8274311,14.0565114 91.3875766,13.4344184 90.8301948,12.9227905 C90.2704857,12.4134882 89.6397948,11.9972091 88.9381221,11.6786045 C88.2352858,11.3599998 87.4847403,11.1274417 86.6864858,10.9844184 C85.8882313,10.8402324 85.1062676,10.7693022 84.3394313,10.7693022 C83.3177586,10.7693022 82.3519404,10.8727905 81.4419768,11.0797673 C80.5320132,11.2879068 79.7419041,11.5995347 79.0716496,12.0134882 C78.401395,12.4297672 77.8649587,12.9227905 77.4669951,13.4972091 C77.0667042,14.0727905 76.8677223,14.7425579 76.8677223,15.5076741 L76.8677223,25.4634879 C76.8677223,26.3565111 77.1074314,27.1065111 77.5868496,27.712325 C78.0651041,28.3193018 78.6713587,28.8134878 79.4056132,29.1960459 C80.1410314,29.5797669 80.9462677,29.8506971 81.8248132,30.0099994 C82.7033586,30.1693017 83.5411768,30.2495343 84.3394313,30.2495343 C85.873104,30.2495343 87.3730312,29.9541855 88.8415403,29.3634878 C90.3100494,28.7739529 91.4597221,27.7599995 92.2905584,26.3251158 L96.6018311,28.2867436 C95.9315765,29.5634878 95.1403038,30.6402319 94.2303402,31.5181389 C93.3203766,32.3948831 92.330122,33.0972086 91.2607402,33.6239528 C90.1901948,34.1495342 89.0649585,34.5251156 87.8838676,34.7483714 C86.7027767,34.9704644 85.5205222,35.0832551 84.3394313,35.0832551 C82.6160859,35.0832551 81.0021223,34.8751156 79.502195,34.4611621 C78.0011041,34.0472086 76.6920133,33.4320923 75.5737587,32.6181389 C74.4566678,31.8053482 73.5781224,30.7983715 72.9404497,29.6030227 C72.3004497,28.4065111 71.982777,27.0262785 71.982777,25.4634879 L71.982777,15.5076741 Z" id="Fill-6" fill="#59595C" mask="url(#mask-4)"></path>
                <path d="M103.401538,25.3198838 C103.401538,26.1175583 103.60052,26.8198838 104.000811,27.4256978 C104.398774,28.0315117 104.942193,28.5419768 105.629902,28.9570931 C106.315284,29.3710466 107.105393,29.6919768 108.000229,29.9140699 C108.893902,30.1384885 109.835284,30.2489536 110.825538,30.2489536 C111.814629,30.2489536 112.76532,30.1384885 113.675284,29.9140699 C114.585248,29.6919768 115.383502,29.3710466 116.070048,28.9570931 C116.756593,28.5419768 117.308157,28.0315117 117.722411,27.4256978 C118.137829,26.8198838 118.34612,26.1175583 118.34612,25.3198838 L118.34612,15.6036048 C118.34612,14.8373258 118.137829,14.1594188 117.722411,13.5698839 C117.308157,12.9791862 116.756593,12.4768607 116.070048,12.0617444 C115.383502,11.6466281 114.585248,11.336163 113.675284,11.1280235 C112.76532,10.9210467 111.814629,10.8163956 110.825538,10.8163956 C109.835284,10.8163956 108.893902,10.9210467 108.000229,11.1280235 C107.105393,11.336163 106.315284,11.6466281 105.629902,12.0617444 C104.942193,12.4768607 104.398774,12.9791862 104.000811,13.5698839 C103.60052,14.1594188 103.401538,14.8373258 103.401538,15.6036048 L103.401538,25.3198838 Z M98.5165927,25.3198831 L98.5165927,15.6036044 C98.5165927,14.0408138 98.8365927,12.6594185 99.4754291,11.4629069 C100.115429,10.2663953 100.986993,9.2617442 102.091284,8.44779074 C103.195575,7.63500007 104.498847,7.02104661 106.002266,6.60476755 C107.505684,6.19081408 109.121975,5.98267455 110.849975,5.98267455 C112.576811,5.98267455 114.201247,6.19081408 115.719793,6.60476755 C117.239502,7.02104661 118.55092,7.63500007 119.655211,8.44779074 C120.759502,9.2617442 121.631066,10.2663953 122.271066,11.4629069 C122.911066,12.6594185 123.231066,14.0408138 123.231066,15.6036044 L123.231066,25.3198831 C123.231066,26.8838366 122.911066,28.2710458 122.271066,29.4838365 C121.631066,30.6966271 120.759502,31.7175573 119.655211,32.5466271 C118.55092,33.3768596 117.239502,34.0070921 115.719793,34.4373247 C114.201247,34.86872 112.576811,35.0826735 110.849975,35.0826735 C109.121975,35.0826735 107.505684,34.86872 106.002266,34.4373247 C104.498847,34.0070921 103.195575,33.3768596 102.091284,32.5466271 C100.986993,31.7175573 100.115429,30.6966271 99.4754291,29.4838365 C98.8365927,28.2710458 98.5165927,26.8838366 98.5165927,25.3198831 L98.5165927,25.3198831 Z" id="Fill-7" fill="#59595C" mask="url(#mask-4)"></path>
                <path d="M186.816814,25.2233721 L186.816814,23.0210465 L176.40925,23.0210465 C175.486487,23.0210465 174.738269,23.1338372 174.164596,23.3582558 C173.592087,23.5815116 173.130123,23.8431395 172.779869,24.1466279 C172.429614,24.4512791 172.191069,24.7687209 172.064232,25.1036047 C171.936232,25.4396512 171.873396,25.718721 171.873396,25.9419768 C171.873396,26.7070931 172.072378,27.3617442 172.469178,27.9047675 C172.868305,28.446628 173.409396,28.8931396 174.09245,29.2443024 C174.776669,29.5954652 175.57376,29.8501164 176.480232,30.0094187 C177.387869,30.1698838 178.350196,30.2489536 179.369541,30.2489536 C181.11965,30.2489536 182.488087,30.0501164 183.47485,29.6512791 C184.461614,29.2524419 185.201687,28.7826745 185.695069,28.2396512 C186.18845,27.6977908 186.499141,27.146628 186.625978,26.5873256 C186.753978,26.0291861 186.816814,25.5756977 186.816814,25.2233721 M179.441687,5.98267455 C181.101032,5.98267455 182.673105,6.17453501 184.157905,6.55709314 C185.643869,6.93965126 186.941323,7.52220938 188.052596,8.30476749 C189.163869,9.08616281 190.049396,10.0687209 190.711505,11.2477906 C191.37245,12.4291859 191.702923,13.8326743 191.702923,15.4605812 L191.702923,25.2233715 C191.702923,26.9466273 191.406196,28.4233714 190.813905,29.6512783 C190.222778,30.8791853 189.382632,31.9001155 188.295796,32.7140689 C187.206632,33.5280224 185.903359,34.1256968 184.384814,34.5082549 C182.863941,34.8919758 181.19296,35.0826735 179.369541,35.0826735 C177.641541,35.0826735 176.02525,34.9082549 174.521832,34.5582549 C173.018414,34.2094177 171.706996,33.6594177 170.586414,32.9117433 C169.466996,32.1640689 168.587287,31.2175573 167.947287,30.0722085 C167.307287,28.9268597 166.987287,27.5582551 166.987287,25.9675575 C166.987287,24.759418 167.218851,23.6768599 167.681978,22.7222088 C168.145105,21.7675577 168.783941,20.9559298 169.598487,20.288488 C170.411869,19.6210461 171.395141,19.1036043 172.543651,18.7373252 C173.693323,18.3710462 174.969832,18.1884881 176.375505,18.1884881 L186.816814,18.1884881 L186.816814,15.4908137 C186.816814,14.7210463 186.624814,14.045465 186.241978,13.467558 C185.859141,12.8884883 185.332014,12.4082557 184.661759,12.0210464 C183.991505,11.6349999 183.208378,11.3396511 182.314705,11.1303488 C181.419869,10.9210465 180.462196,10.8163953 179.441687,10.8163953 C176.247505,10.8163953 173.94816,11.8384883 172.543651,13.8803487 L168.32896,11.3908139 C169.446051,9.54197675 170.947141,8.17802331 172.831069,7.29895358 C174.714996,6.42220942 176.91776,5.98267455 179.441687,5.98267455" id="Fill-8" fill="#59595C" mask="url(#mask-4)"></path>
                <path d="M164.77591,23.3803483 L164.77591,15.6036044 C164.77591,14.0408138 164.503619,12.6524417 163.961365,11.4384883 C163.417946,10.2268604 162.660419,9.22104653 161.686455,8.42453493 C160.711328,7.62686054 159.555837,7.02104661 158.214164,6.60476755 C156.872492,6.19081408 155.41911,5.98267455 153.855182,5.98267455 C152.066673,5.98267455 150.41431,6.19081408 148.898091,6.60476755 C147.38071,7.02104661 146.158891,7.72220937 145.2338,8.71174422 C144.307546,7.72220937 143.118309,7.02104661 141.664928,6.60476755 C140.211546,6.19081408 138.559182,5.98267455 136.707837,5.98267455 C135.206746,5.98267455 133.794091,6.17453501 132.468709,6.55709314 C131.144491,6.93965126 129.986673,7.53034892 128.996418,8.32918609 C128.006164,9.12569769 127.216054,10.1233721 126.626091,11.3198837 C126.034964,12.5163952 125.7394,13.9443022 125.7394,15.6036044 L125.7394,34.7001153 L130.625509,34.7001153 L130.625509,15.6036044 C130.625509,14.80593 130.793073,14.1036045 131.127036,13.4977906 C131.463327,12.8908138 131.902018,12.3896511 132.445436,11.9896511 C132.987691,11.5908139 133.625364,11.2954651 134.360782,11.1036046 C135.095036,10.9129069 135.878164,10.8163953 136.707837,10.8163953 C138.527764,10.8163953 140.004418,11.2326744 141.138964,12.0617441 C142.271182,12.8908138 142.839037,14.0722091 142.839037,15.6036044 L142.839037,34.7001153 L147.723982,34.7001153 L147.723982,15.6036044 C147.723982,14.80593 147.891546,14.1036045 148.22551,13.4977906 C148.55831,12.8908138 149.003982,12.3896511 149.5602,11.9896511 C150.117582,11.5908139 150.769219,11.2954651 151.517437,11.1036046 C152.264491,10.9129069 153.05111,10.8163953 153.878455,10.8163953 C155.628564,10.8163953 157.066819,11.2326744 158.19671,12.0617441 C159.324273,12.8908138 159.889801,14.0722091 159.889801,15.6036044 L159.889801,28.2617435 L159.890964,28.2617435 L159.890964,31.1780225 C159.890964,33.3349991 161.63991,35.0826735 163.798455,35.0826735 L164.77591,35.0826735 L164.77591,23.3803483 Z" id="Fill-9" fill="#59595C" mask="url(#mask-4)"></path>
                <path d="M56.0401458,6.67779058 C52.3351276,6.67779058 49.4388367,7.49755805 47.3477822,9.13941857 C45.255564,10.7801163 44.2094549,13.0708141 44.2094549,16.0091863 L44.2094549,28.4556983 L44.2094549,35.0836055 L45.1869094,35.0836055 C47.3454549,35.0836055 49.095564,33.3347683 49.095564,31.1777906 L49.095564,23.3801167 L49.095564,16.0091863 C49.095564,14.5719769 49.7250913,13.4463955 50.9876367,12.6336047 C52.2478549,11.820814 53.9328003,11.4138373 56.0401458,11.4138373 L62.5064731,11.4138373 L62.5064731,6.67779058 L56.0401458,6.67779058 Z" id="Fill-10" fill="#59595C" mask="url(#mask-4)"></path>
                <path d="M64.6975986,-0.000348837226 L68.4177439,-0.000348837226 C68.7528712,-0.000348837226 69.0239985,0.270581403 69.0239985,0.605465134 L69.0239985,3.17523265 C69.0239985,3.51011638 68.7528712,3.78104662 68.4177439,3.78104662 L64.6975986,3.78104662 C64.3624714,3.78104662 64.0913441,3.51011638 64.0913441,3.17523265 L64.0913441,0.605465134 C64.0913441,0.270581403 64.3624714,-0.000348837226 64.6975986,-0.000348837226" id="Fill-11" fill="#F17D21" mask="url(#mask-4)"></path>
                <polygon id="Fill-12" fill="#59595C" mask="url(#mask-4)" points="71.1173822 42.1372107 68.5108367 42.1372107 67.140073 49.9069779 66.4000003 49.9069779 67.7707639 42.1372107 65.1874911 42.1372107 65.3178184 41.3976758 71.2477095 41.3976758"></polygon>
                <polygon id="Fill-13" fill="#59595C" mask="url(#mask-4)" points="80.8895979 41.3979065 79.388507 49.9060459 78.6484343 49.9060459 79.3663979 45.8339529 75.0225434 45.8339529 74.3034161 49.9060459 73.5633434 49.9060459 75.0644343 41.3979065 75.804507 41.3979065 75.1528707 45.0955808 79.4978889 45.0955808 80.1495252 41.3979065"></polygon>
                <polygon id="Fill-14" fill="#59595C" mask="url(#mask-4)" points="86.3878978 41.3866265 84.8844797 49.9063941 84.144407 49.9063941 85.6478251 41.3866265"></polygon>
                <polygon id="Fill-15" fill="#59595C" mask="url(#mask-4)" points="89.6521307 49.9065116 91.1543852 41.3983722 91.9526397 41.3983722 95.065367 48.5797675 96.332567 41.3983722 97.0714761 41.3983722 95.5703852 49.9065116 94.7593306 49.9065116 91.6594034 42.7239536 90.3922034 49.9065116"></polygon>
                <polygon id="Fill-16" fill="#59595C" mask="url(#mask-4)" points="101.828773 41.3979065 102.568845 41.3979065 101.875318 45.3293018 106.866154 41.3979065 107.970445 41.3979065 102.570009 45.6455808 106.492627 49.9060459 105.412772 49.9060459 101.764773 45.9513948 101.067754 49.9060459 100.326518 49.9060459"></polygon>
                <path d="M116.9458,49.1673234 L119.936345,49.1673234 C120.038745,49.1673234 120.173727,49.1568583 120.34129,49.1382536 C120.510018,49.1184862 120.681072,49.0510443 120.854454,48.9382536 C121.026672,48.8243001 121.190745,48.6429048 121.344345,48.3929048 C121.499109,48.141742 121.616636,47.7870909 121.69809,47.3243002 C121.78769,46.8161607 121.730672,46.4405793 121.525872,46.197556 C121.321072,45.9545328 120.987109,45.8347653 120.523981,45.8347653 L117.533436,45.8347653 L116.9458,49.1673234 Z M117.663763,45.0952303 L120.667109,45.0952303 C121.0674,45.0952303 121.392054,44.9603466 121.639909,44.6894164 C121.887763,44.419649 122.050672,44.0615094 122.1298,43.6161606 C122.214745,43.1312769 122.185654,42.7626723 122.041363,42.5126723 C121.897072,42.2626723 121.608491,42.1370909 121.177945,42.1370909 L118.186236,42.1370909 L117.663763,45.0952303 Z M116.0754,49.9068582 L117.57649,41.397556 L121.3106,41.397556 C121.944782,41.397556 122.393945,41.5952305 122.656927,41.9905793 C122.919909,42.3859281 122.990891,42.9277886 122.868709,43.6161606 C122.798891,44.0149978 122.673218,44.3626723 122.491691,44.6603467 C122.309,44.9580211 122.083254,45.2091839 121.813291,45.4126722 C121.909872,45.4824397 122.006454,45.5673234 122.101872,45.669649 C122.197291,45.7708118 122.278745,45.8987187 122.345072,46.0510443 C122.412563,46.2033699 122.456782,46.3836024 122.478891,46.5905792 C122.501,46.7987187 122.487036,47.0429048 122.438163,47.3243001 C122.292709,48.1452303 122.002963,48.7812768 121.567763,49.2312768 C121.1314,49.6812768 120.546091,49.9068582 119.809509,49.9068582 L116.0754,49.9068582 Z" id="Fill-17" fill="#59595C" mask="url(#mask-4)"></path>
                <polygon id="Fill-18" fill="#59595C" mask="url(#mask-4)" points="132.994679 42.1372107 128.144643 42.1372107 127.623334 45.0953501 131.110752 45.0953501 130.980425 45.834885 127.491843 45.834885 126.904207 49.1674431 131.754243 49.1674431 131.623916 49.9069779 126.033807 49.9069779 127.536061 41.3976758 133.125007 41.3976758"></polygon>
                <polygon id="Fill-19" fill="#59595C" mask="url(#mask-4)" points="138.024844 49.9065116 137.284771 49.9065116 137.999244 45.8576745 136.01408 41.3983722 136.87168 41.3983722 138.513571 45.071628 141.521571 41.3983722 142.379171 41.3983722 138.739317 45.8576745"></polygon>
                <path d="M149.209482,47.8148847 L149.975155,43.4776755 C149.99261,43.3765127 150.001919,43.2439546 150.003101,43.0846523 C150.004246,42.9230244 149.949555,42.7660476 149.840173,42.613722 C149.729628,42.4613965 149.537628,42.3276755 149.264173,42.2148848 C148.990719,42.1009314 148.586937,42.0439546 148.055155,42.0439546 C147.515228,42.0439546 147.088173,42.1009314 146.773991,42.2148848 C146.460973,42.3276755 146.221264,42.4625593 146.057191,42.619536 C145.891955,42.7765127 145.783737,42.9369779 145.731373,43.1009313 C145.677846,43.2660476 145.644101,43.3951174 145.62781,43.4893034 L144.866791,47.8032568 C144.849337,47.8974429 144.838864,48.0265126 144.833046,48.1904661 C144.827228,48.3555824 144.879591,48.5172103 144.988973,48.6730242 C145.098355,48.830001 145.289191,48.9660475 145.562646,49.0846521 C145.834937,49.202094 146.24221,49.2602335 146.782137,49.2602335 C147.313919,49.2602335 147.737482,49.2032568 148.050501,49.0904661 C148.364682,48.9765126 148.603228,48.8416289 148.768464,48.6846521 C148.932537,48.5276754 149.043082,48.3683731 149.100101,48.2032568 C149.155955,48.0381405 149.192028,47.9090708 149.209482,47.8148847 M150.70941,43.5102338 L149.957701,47.770699 C149.82621,48.5137222 149.478283,49.070699 148.916246,49.4416292 C148.353046,49.8148851 147.59901,49.9997688 146.650646,49.9997688 C145.703446,49.9997688 145.014573,49.8148851 144.582864,49.4416292 C144.151155,49.070699 144.001046,48.5137222 144.132537,47.770699 L144.884246,43.5102338 C145.011082,42.7916291 145.355519,42.2427919 145.919882,41.8672105 C146.483082,41.4927919 147.238282,41.3044198 148.185482,41.3044198 C149.132682,41.3044198 149.822719,41.4893035 150.254428,41.8555826 C150.687301,42.2230244 150.838573,42.77535 150.70941,43.5102338" id="Fill-20" fill="#59595C" mask="url(#mask-4)"></path>
                <polygon id="Fill-21" fill="#59595C" mask="url(#mask-4)" points="153.74929 49.9065116 155.250381 41.3983722 156.048635 41.3983722 159.161362 48.5797675 160.429726 41.3983722 161.168635 41.3983722 159.667544 49.9065116 158.855326 49.9065116 155.756562 42.7239536 154.489362 49.9065116"></polygon>
                <path d="M168.114033,42.1372107 L165.947342,42.1372107 L164.706906,49.1674432 L166.873597,49.1674432 C167.11796,49.1674432 167.365815,49.146513 167.620651,49.1081409 C167.874324,49.0697688 168.109378,48.996513 168.324651,48.8918618 C168.53876,48.7860479 168.724942,48.640699 168.883197,48.4569781 C169.041451,48.2732572 169.146178,48.0325595 169.199706,47.7348851 L169.944433,43.5104665 C169.988651,43.2604665 169.975851,43.046513 169.904869,42.8709316 C169.833888,42.6941874 169.715197,42.5511641 169.54996,42.4430246 C169.384724,42.3337223 169.181088,42.2546525 168.937888,42.2081409 C168.694688,42.1616293 168.420069,42.1372107 168.114033,42.1372107 L168.114033,42.1372107 Z M165.33876,41.3976758 L168.250178,41.3976758 C169.12756,41.3976758 169.782687,41.5767456 170.217887,41.9313967 C170.651924,42.2883735 170.806687,42.8139548 170.684506,43.5104665 L169.938615,47.734885 C169.812942,48.4476756 169.467342,48.9872105 168.901815,49.3546524 C168.335124,49.7220942 167.618324,49.9069779 166.749087,49.9069779 L163.836506,49.9069779 L165.33876,41.3976758 Z" id="Fill-22" fill="#59595C" mask="url(#mask-4)"></path>
            </g>
        </g>
    </g>
</svg>