<?xml version="1.0" encoding="UTF-8"?>
<svg width="33px" height="33px" viewBox="0 0 33 33" version="1.1" xmlns="http://www.w3.org/2000/svg" xmlns:xlink="http://www.w3.org/1999/xlink">
    <!-- Generator: sketchtool 61.1 (101010) - https://sketch.com -->
    <title>0168CFBD-CA5D-4705-8438-5C1E0CF00D50</title>
    <desc>Created with sketchtool.</desc>
    <g id="Page-1" stroke="none" stroke-width="1" fill="none" fill-rule="evenodd">
        <g id="Free-Patch-lead-magnet" transform="translate(-351.000000, -2442.000000)" fill="#FF0020" fill-rule="nonzero">
            <g id="x" transform="translate(356.000000, 2447.000000)">
                <path d="M-3.18198052,-3.18198052 C-1.47953868,-4.88442235 1.24760984,-4.93762366 3.01409585,-3.34158444 L3.18198052,-3.18198052 L26.5408672,20.1769062 C28.2982265,21.9342655 28.2982265,24.7835079 26.5408672,26.5408672 C24.8384254,28.2433091 22.1112769,28.2965104 20.3447909,26.7004712 L20.1769062,26.5408672 L-3.18198052,3.18198052 C-4.93933983,1.4246212 -4.93933983,-1.4246212 -3.18198052,-3.18198052 Z" id="Path-4"></path>
                <path d="M-3.18198052,-3.18198052 C-1.47953868,-4.88442235 1.24760984,-4.93762366 3.01409585,-3.34158444 L3.18198052,-3.18198052 L26.5408672,20.1769062 C28.2982265,21.9342655 28.2982265,24.7835079 26.5408672,26.5408672 C24.8384254,28.2433091 22.1112769,28.2965104 20.3447909,26.7004712 L20.1769062,26.5408672 L-3.18198052,3.18198052 C-4.93933983,1.4246212 -4.93933983,-1.4246212 -3.18198052,-3.18198052 Z" id="Path-4" transform="translate(11.679443, 11.679443) scale(-1, 1) translate(-11.679443, -11.679443) "></path>
            </g>
        </g>
    </g>
</svg>